<svg xmlns="http://www.w3.org/2000/svg" viewBox="0 0 200 200"><title>button-checkbox-on</title><g id="Layer_2" data-name="Layer 2"><path d="M119.42,148.44l-.56.56L117,150.87l-.18.18-.19.17a20.92,20.92,0,0,1-30.37-2.08L48.33,105A20.14,20.14,0,0,1,42.7,89.79a20.53,20.53,0,0,1,7.51-14.58,20,20,0,0,1,13.84-5.54,20.4,20.4,0,0,1,16,7.76L101.29,102l57.08-70.9H31.19V168.81H168.92V76.47l-49,71.32Z"/><path d="M191.83,9.85c-3,0-6.84,1.85-10.33,6.22l-80,99.34L73.41,82.92a11.85,11.85,0,0,0-9.36-4.64,11.44,11.44,0,0,0-8.14,3.39,11.63,11.63,0,0,0-1.25,17.49h0l38.11,44.36a13,13,0,0,0,9.67,4.64,12.72,12.72,0,0,0,8.45-3.38c.62-.63,1.25-1.26,1.88-1.88L194,24.81C200.51,16.28,197.49,9.85,191.83,9.85Z"/></g></svg>