<svg xmlns="http://www.w3.org/2000/svg" viewBox="0 0 200 200"><title>icon-keyboard-backspace</title><g id="Layer_2" data-name="Layer 2"><path d="M163.71,40.5H70.19a22.09,22.09,0,0,0-16.26,7.15L20.05,84.55a22,22,0,0,0-.18,29.65l34,38a22.09,22.09,0,0,0,16.44,7.35h93.42a22.1,22.1,0,0,0,22.08-22.07V62.57A22.1,22.1,0,0,0,163.71,40.5Zm6.08,96.93a6.08,6.08,0,0,1-6.08,6.07H70.29a6.09,6.09,0,0,1-4.52-2l-34-37.95a6.06,6.06,0,0,1,.05-8.16l33.87-36.9a6.1,6.1,0,0,1,4.48-2h93.52a6.08,6.08,0,0,1,6.08,6.07Z"/><path d="M140.09,73.79a8,8,0,0,0-11.31,0L113.9,88.67,99,73.79A8,8,0,0,0,87.71,85.1L102.59,100,87.71,114.86A8,8,0,0,0,99,126.17l14.87-14.88,14.88,14.88a8,8,0,0,0,11.31-11.31L125.22,100,140.09,85.1A8,8,0,0,0,140.09,73.79Z"/></g></svg>