<svg xmlns="http://www.w3.org/2000/svg" viewBox="0 0 200 200"><title>icon-tray-settings-v2</title><g id="Layer_2" data-name="Layer 2"><path d="M179.52,91.75H152.76a53.07,53.07,0,0,0-9.6-23.24l18.9-18.9a8.25,8.25,0,1,0-11.67-11.67L131.52,56.81a53.15,53.15,0,0,0-23.27-9.69V20.48a8.25,8.25,0,0,0-16.5,0V47.12a53.15,53.15,0,0,0-23.27,9.69L49.61,37.94A8.25,8.25,0,0,0,37.94,49.61l18.9,18.9a53.07,53.07,0,0,0-9.6,23.24H20.48a8.25,8.25,0,0,0,0,16.5H47.3A53,53,0,0,0,57,131.37l-19,19a8.25,8.25,0,1,0,11.67,11.67l19-19.05a53.18,53.18,0,0,0,23.09,9.57v26.94a8.25,8.25,0,0,0,16.5,0V152.58A53.18,53.18,0,0,0,131.34,143l19,19.05a8.25,8.25,0,0,0,11.67-11.67l-19-19a53,53,0,0,0,9.67-23.12h26.82a8.25,8.25,0,0,0,0-16.5Zm-79.52,45a36.87,36.87,0,1,1,36.87-36.87A36.91,36.91,0,0,1,100,136.72Z"/></g></svg>