<svg xmlns="http://www.w3.org/2000/svg" viewBox="0 0 200 200"><title>icon-moviemode-brightness</title><g id="Layer_2" data-name="Layer 2"><path d="M99.5,62.34a38,38,0,1,0,38,38A38,38,0,0,0,99.5,62.34Zm0,60-.86,0v-44l.86,0a22,22,0,0,1,0,44Z"/><path d="M100,54.77a8,8,0,0,0,8-8V10.82a8,8,0,1,0-16,0v36A8,8,0,0,0,100,54.77Z"/><path d="M100,145.23a8,8,0,0,0-8,8v36a8,8,0,0,0,16,0v-36A8,8,0,0,0,100,145.23Z"/><path d="M189.18,92h-36a8,8,0,0,0,0,16h36a8,8,0,0,0,0-16Z"/><path d="M54.77,100a8,8,0,0,0-8-8H10.82a8,8,0,1,0,0,16h36A8,8,0,0,0,54.77,100Z"/><path d="M137.64,70.36A8,8,0,0,0,143.29,68L168.71,42.6A8,8,0,0,0,157.4,31.29L132,56.71a8,8,0,0,0,5.66,13.65Z"/><path d="M56.71,132,31.29,157.4A8,8,0,1,0,42.6,168.71L68,143.29A8,8,0,0,0,56.71,132Z"/><path d="M143.29,132A8,8,0,0,0,132,143.29l25.42,25.42a8,8,0,0,0,11.31-11.31Z"/><path d="M56.71,68A8,8,0,0,0,68,56.71L42.6,31.29A8,8,0,0,0,31.29,42.6Z"/></g></svg>