<svg xmlns="http://www.w3.org/2000/svg" viewBox="0 0 200 200"><title>icon-immersivemoviemode-transportcontrols-volume-mute</title><g id="Layer_2" data-name="Layer 2"><path d="M90,153.77a8.71,8.71,0,0,0,12.85-7.67V96.52L61.23,138.19Z"/><path d="M127,56.59a8.25,8.25,0,0,0,0-11.67h0a8.26,8.26,0,0,0-11.66,0L102.89,57.28V53.65A8.71,8.71,0,0,0,90,46L46.49,69.59a8.66,8.66,0,0,1-4.16,1.06H26.76a8.71,8.71,0,0,0-8.71,8.71v40.88A8.71,8.71,0,0,0,26.76,129H31L16.76,143.16a8.26,8.26,0,0,0,0,11.67h0a8.25,8.25,0,0,0,11.66,0l22.37-22.29.11.06,52-52v0Z"/></g></svg>