<svg xmlns="http://www.w3.org/2000/svg" viewBox="0 0 200 200"><title>icon-immersivemoviemode-transportcontrols-seek-10</title><g id="Layer_2" data-name="Layer 2"><path d="M100,18.41a84.67,84.67,0,0,0-34.2,7.2L58.56,15.12A6.58,6.58,0,0,0,47.2,16L29.82,52.61A6.58,6.58,0,0,0,36.29,62l40.37-3.24a6.58,6.58,0,0,0,4.89-10.29l-6.47-9.38a68.66,68.66,0,1,1-43.74,64,8,8,0,0,0-16,0A84.66,84.66,0,1,0,100,18.41Z"/><polygon points="85.3 127.26 85.3 85.04 80.43 85.04 71.21 89.97 72.31 94.33 79.64 90.37 79.77 90.37 79.77 127.26 85.3 127.26"/><path d="M128.79,105.69c0-13.44-5.07-21.36-14-21.36-8.58,0-14.69,7.79-14.69,21.94.13,14,5.73,21.7,14,21.7C123.46,128,128.79,120.05,128.79,105.69Zm-22.92.65c0-11.5,3.63-17.59,8.63-17.59,5.91,0,8.58,6.81,8.58,17.21,0,10.78-2.8,17.6-8.65,17.6C109.25,123.56,105.87,117.32,105.87,106.34Z"/></g></svg>