<svg xmlns="http://www.w3.org/2000/svg" viewBox="0 0 200 200"><title>icon-immersivemoviemode-videoplayback-180-Stereo-LeftRighticon-moviemode-videoplayback-180-topbottom</title><g id="Layer_2" data-name="Layer 2"><path d="M175.81,97.72a8,8,0,0,0-8,8,68.25,68.25,0,0,1-.58,8.94,8,8,0,0,0,6.91,9,7.27,7.27,0,0,0,1,.07,8,8,0,0,0,7.92-7,85.74,85.74,0,0,0,.71-11A8,8,0,0,0,175.81,97.72Z"/><path d="M38.18,137.2A8,8,0,1,0,24,144.55,84.9,84.9,0,0,0,38.1,164.3a8,8,0,0,0,11.55-11.08A68.86,68.86,0,0,1,38.18,137.2Z"/><path d="M129.71,167.2A67.61,67.61,0,0,1,116.92,172a7.6,7.6,0,0,0-.8.17,69,69,0,0,1-9.5,1.73V36.38a67.9,67.9,0,0,1,35.51,14.8l-4.62,4.61a6.83,6.83,0,0,0,3.06,11.42l26.49,7.1A6.83,6.83,0,0,0,175.42,66l-7.1-26.49A6.83,6.83,0,0,0,156.9,36.4l-3.41,3.41A84.67,84.67,0,0,0,21.65,70.15a8,8,0,1,0,14.61,6.51,68.76,68.76,0,0,1,54.36-40.2V173.85c-.85-.1-1.69-.22-2.53-.35a5.62,5.62,0,0,0-.71-.16,68.12,68.12,0,0,1-18.71-6.13,8,8,0,1,0-7.12,14.33q2.63,1.31,5.32,2.41a8,8,0,0,0,1.27.64,84.21,84.21,0,0,0,30.77,5.77,85.42,85.42,0,0,0,14-1.17c.26,0,.53-.05.79-.09a84,84,0,0,0,23.1-7.57,8,8,0,0,0-7.12-14.33Z"/><path d="M171,133.75a8,8,0,0,0-10.78,3.43,68.91,68.91,0,0,1-11.47,16,8,8,0,1,0,11.55,11.07,84.4,84.4,0,0,0,14.13-19.75A8,8,0,0,0,171,133.75Z"/><path d="M24.22,123.62a8,8,0,0,0,6.91-9,68.47,68.47,0,0,1-.58-8.94,8,8,0,0,0-16,0,86,86,0,0,0,.71,11,8,8,0,0,0,7.92,7A7.27,7.27,0,0,0,24.22,123.62Z"/></g></svg>