<svg xmlns="http://www.w3.org/2000/svg" viewBox="0 0 200 200"><title>icon-tray-help-v2</title><g id="Layer_2" data-name="Layer 2"><circle cx="99.23" cy="166.11" r="10.11"/><path d="M135.4,35.3c-8.67-7.65-20.63-11.53-35.55-11.53-14.16,0-25.66,3.83-34.19,11.38S52.57,51.68,51.89,62.5v.29a6.94,6.94,0,0,0-.07,1.07A8.58,8.58,0,0,0,68.88,65l0-.19,0-.19c2-9.23,5.8-16.3,11.32-21S92.89,36.42,101,36.42c8.49,0,15.41,2.33,20.56,6.93a22.09,22.09,0,0,1,8,17.17A21.8,21.8,0,0,1,125,74c-1.18,1.53-4,4.61-15.42,13.82C101.94,94,96.83,99.56,94.39,104.31s-3.63,10.85-3.63,18.33c0,.77,0,2.93.1,6.62v.08a8.37,8.37,0,0,0,16.73,0c-.14-8.57.61-14.28,2.37-18s5.72-8,12.17-13.35c11-9.14,18.24-16.38,21.51-21.52a28,28,0,0,0,4.55-15.19C148.2,51.42,144,42.89,135.4,35.3Z"/></g></svg>