<svg xmlns="http://www.w3.org/2000/svg" viewBox="0 0 200 200"><title>icon-dialog-microphone</title><g id="Layer_2" data-name="Layer 2"><path d="M100,123.45a20.84,20.84,0,0,0,20.83-20.83V63c0-9.33-9.33-20.84-20.83-20.84A20.84,20.84,0,0,0,79.16,63v39.61C79.16,112,88.49,123.45,100,123.45Z"/><path d="M133,80a3.47,3.47,0,0,0-3.47,3.47v18.37a29.53,29.53,0,1,1-59.06,0V83.51c0-4.63-6.95-4.63-6.95,0v18.37a36.53,36.53,0,0,0,33,36.33v12.67H82.64c-4.64,0-4.64,7,0,7h34.72c4.64,0,4.64-7,0-7H103.47V138.22a36.54,36.54,0,0,0,33-36.34V83.51A3.47,3.47,0,0,0,133,80Z"/></g></svg>