<svg xmlns="http://www.w3.org/2000/svg" viewBox="0 0 200 200"><title>icon-focus mode-resize-3x</title><g id="Layer_2" data-name="Layer 2"><path d="M92.83,82.31A15.11,15.11,0,0,1,89.2,92.53,18.88,18.88,0,0,1,79,98.31v.27q7.77,1,11.75,4.71t4,10.1q0,9.26-6.71,14.4t-19.15,5.15a46.7,46.7,0,0,1-18.5-3.46V118a41.85,41.85,0,0,0,8.2,3.07,34.86,34.86,0,0,0,8.85,1.18q6.7,0,9.91-2.28t3.2-7.32a6.62,6.62,0,0,0-3.68-6.4q-3.69-1.89-11.75-1.88H60.23V93.93h5c5,0,8.59-.65,10.89-2s3.44-3.53,3.44-6.68q0-7.29-9.12-7.28a20.93,20.93,0,0,0-6.42,1,31.63,31.63,0,0,0-7.25,3.64l-6.27-9.34q8.77-6.3,20.91-6.31,9.94,0,15.71,4A12.94,12.94,0,0,1,92.83,82.31Z"/><path d="M115.23,107l-15.78-24h15.17l9.51,15.6,9.6-15.6h15.16l-15.95,24,16.7,25H134.43l-10.3-16.79-10.35,16.79H98.62Z"/></g></svg>