<svg xmlns="http://www.w3.org/2000/svg" viewBox="0 0 200 200"><title>icon-moviemode-videoplayback-180</title><g id="Layer_2" data-name="Layer 2"><path d="M176.63,93.13a8,8,0,0,0-8,8,68.4,68.4,0,0,1-.58,9,8,8,0,0,0,6.91,9,7.27,7.27,0,0,0,1,.07,8,8,0,0,0,7.92-7,85.89,85.89,0,0,0,.71-11A8,8,0,0,0,176.63,93.13Z"/><path d="M88.2,168.75a67.77,67.77,0,0,1-18.71-6.12A8,8,0,1,0,62.37,177a84.25,84.25,0,0,0,23.1,7.56,8,8,0,0,0,2.73-15.77Z"/><path d="M39,132.62A8,8,0,1,0,24.79,140a84.9,84.9,0,0,0,14.13,19.75,8,8,0,0,0,11.55-11.08A69.07,69.07,0,0,1,39,132.62Z"/><path d="M130.53,162.62a68.23,68.23,0,0,1-18.71,6.13,8,8,0,1,0,2.73,15.77,84.38,84.38,0,0,0,23.1-7.57,8,8,0,0,0-7.12-14.33Z"/><path d="M171.79,129.17A8,8,0,0,0,161,132.6a68.91,68.91,0,0,1-11.47,16,8,8,0,0,0,11.55,11.07A84.69,84.69,0,0,0,175.22,140,8,8,0,0,0,171.79,129.17Z"/><path d="M25,119a8,8,0,0,0,6.91-9,68.51,68.51,0,0,1-.58-9,8,8,0,0,0-16,0,86,86,0,0,0,.71,11,8,8,0,0,0,7.92,7A7.27,7.27,0,0,0,25,119Z"/><path d="M138.33,51.21a6.83,6.83,0,0,0,3.06,11.42l26.49,7.1a6.83,6.83,0,0,0,8.36-8.36l-7.1-26.49a6.83,6.83,0,0,0-11.42-3.06l-3.41,3.41A84.68,84.68,0,0,0,22.46,65.57a8,8,0,1,0,14.62,6.51A68.68,68.68,0,0,1,143,46.6Z"/></g></svg>