<svg xmlns="http://www.w3.org/2000/svg" viewBox="0 0 200 200"><title>icon-settings-language</title><g id="Layer_2" data-name="Layer 2"><polygon points="55.26 80.23 66.32 80.23 60.78 62.26 55.26 80.23"/><path d="M37.1,25.32A15.72,15.72,0,0,0,21.38,41V174.68l47.17-47.16h35.38L76.42,25.32ZM72.48,102l-3.61-11.8H52.54L48.9,102H41l15.72-51.1h7.86L80.34,102Z"/><path d="M174,29.92a15.72,15.72,0,0,0-11.12-4.6H84.28l27.51,102.2h51.1a15.74,15.74,0,0,0,15.73-15.73V41A15.73,15.73,0,0,0,174,29.92Zm-36,67.92a43,43,0,0,1-18.4,4.13V94.1a35.09,35.09,0,0,0,9.83-1.37c-6.07-4.84-9.83-11.19-9.83-18.28h7.87c0,5.66,4.08,10.83,10.45,14.47A26.61,26.61,0,0,0,151.1,66.59H119.65V58.73h15.73V50.87h7.86v7.86H159v7.86a33.68,33.68,0,0,1-12.52,25.8A46.12,46.12,0,0,0,159,94.11V102A52.89,52.89,0,0,1,138.05,97.84Z"/></g></svg>