<svg width="18" height="18" viewBox="0 0 18 18" fill="none" xmlns="http://www.w3.org/2000/svg">
<path fill-rule="evenodd" clip-rule="evenodd" d="M4 3C1.79086 3 -9.65645e-08 4.79086 0 7L1.74846e-07 11C2.7141e-07 13.2091 1.79025 15 3.99939 15H4.5C6.15153 15 6.74235 14.4949 7.27348 14.0408C7.70714 13.6701 8.10102 13.3333 9 13.3333C9.94427 13.3333 10.4427 13.7049 10.9689 14.0971C11.5573 14.5356 12.1803 15 13.5 15H14.0002C16.2094 15 18 13.2091 18 11V7C18 4.79086 16.2091 3 14 3L4 3ZM6.08784 8.02674L12.9424 3.94854L10.8546 7.56459L13.1046 8.86362L6.2501 12.9418L8.33783 9.32577L6.08784 8.02674Z" fill="white"/>
</svg>
