<svg xmlns="http://www.w3.org/2000/svg" viewBox="0 0 200 200"><title>icon-tray-private-browsing-on</title><g id="Layer_2" data-name="Layer 2"><path d="M187.19,64.9C179,55.21,163.26,54.07,154.6,54.26c-19.42.41-29.82,4.39-38.19,7.58-5.75,2.2-10.3,3.94-16.4,3.94S89.36,64,83.6,61.84c-8.37-3.19-18.78-7.17-38.2-7.58-8.68-.19-24.42,1-32.59,10.64-7.15,8.47-9.1,22.19-5.47,38.64,1,4.57,4.16,16.3,11.62,26.34,7.88,10.61,18.3,16.11,30.1,15.87,12.78-.24,21.33-5.88,28.88-10.86,7-4.65,13.12-8.67,22-8.78,8.94.11,15,4.13,22.12,8.78,7.57,5,16.15,10.62,28.93,10.86h.7c11.52,0,21.67-5.48,29.4-15.88,7.46-10,10.61-21.77,11.62-26.34C196.29,87.09,194.34,73.37,187.19,64.9Zm-47.25,42.52c-12.62-.12-24.1-4.21-23.83-6.7,1.28-11.49,15.75-14.94,20.32-15.07,11.23-.33,28.34,7.65,28.63,12.31C165.33,102.39,149.33,107.51,139.94,107.42Zm-80,0c-9.36.09-25.31-5-25-9.43.29-4.65,17.35-12.6,28.55-12.28,4.55.13,19,3.57,20.25,15C84,103.19,72.57,107.27,60,107.39Z"/></g></svg>