<svg xmlns="http://www.w3.org/2000/svg" viewBox="0 0 200 200"><defs><style>.cls-1{fill:none;stroke:#000;stroke-linecap:round;stroke-linejoin:round;stroke-width:0;}</style></defs><title>icon-keyboard-move</title><g id="Layer_2" data-name="Layer 2"><path d="M35,108H74.87a8,8,0,0,0,8-8,7.79,7.79,0,0,0-8-8h-40l8-8a7.92,7.92,0,0,0-5.58-13.49h0a7.86,7.86,0,0,0-5.57,2.35L10.3,94.33a7.8,7.8,0,0,0,0,11.14l21.45,21.45a8.53,8.53,0,0,0,5.91,2.43A7.31,7.31,0,0,0,42,128a7.83,7.83,0,0,0,3.43-5.76,8,8,0,0,0-2.32-6.47Z"/><path d="M122,154.78l-.5,0a7.65,7.65,0,0,0-5.62,2.46l-8,8v-40a8,8,0,0,0-8-8,7.78,7.78,0,0,0-8,8V165l-8-8a8,8,0,0,0-5.66-2.33,7.32,7.32,0,0,0-.81,0,7.85,7.85,0,0,0-5.78,3.47,8.41,8.41,0,0,0,1,10.09l0,0,0,0,21.45,21.45a7.8,7.8,0,0,0,11.14,0l21.45-21.45c2.42-2.42,3.46-6.91,1-10.26A7.83,7.83,0,0,0,122,154.78Z"/><path d="M77.85,45.21l.46,0A7.77,7.77,0,0,0,84,42.77l8-8v40a8,8,0,0,0,8,8,7.79,7.79,0,0,0,8-8v-40l8,8A7.88,7.88,0,1,0,127,31.66L105.57,10.21A7.85,7.85,0,0,0,100,7.87h0a7.81,7.81,0,0,0-5.56,2.34L73,31.66c-2.42,2.42-3.46,6.91-1,10.26A7.82,7.82,0,0,0,77.85,45.21Z"/><line class="cls-1" x1="187.8" y1="96.23" x2="187.8" y2="96.23"/><path d="M189.7,94.33,168.25,72.88a7.86,7.86,0,0,0-5.58-2.35h0A7.88,7.88,0,0,0,157.11,84l8,8h-40a8,8,0,0,0-8,8,7.78,7.78,0,0,0,8,8h40l-8,8a7.88,7.88,0,1,0,11.15,11.14l21.45-21.45A8,8,0,0,0,189.7,94.33Zm-1.9,1.9Z"/></g></svg>