<svg xmlns="http://www.w3.org/2000/svg" viewBox="0 0 200 200"><title>icon-settings-controller-oculusgo</title><g id="Layer_2" data-name="Layer 2"><path d="M183.31,156.74c-1.69-3.73-47.45-62.51-50.13-66-2-2.53-50-62.29-52.63-64.91C76.28,21.59,71.8,18,66.48,16c-14.2-5.18-30.23-2.59-41.62,8.8s-14,27.46-8.78,41.67c1.94,5.3,5.55,9.77,9.81,14,2.65,2.66,62.17,50.53,65,52.7,3.71,2.8,62.07,48.45,66,50.1,4.24,1.77,14.27,7.35,24-2.38S184.89,160.19,183.31,156.74Zm-73-62.92c-.24,4.79-3.3,9-5.36,11.07s-6.39,5.31-11.23,5.66a27.46,27.46,0,0,1-9-.86c-6.56-1.6-14.19-5.76-15.67-6.55-1.8-1-34.83-21.88-41.49-28.54A33.28,33.28,0,0,1,74.63,27.53c6.75,6.75,27,40.32,27.84,42.35.68,1.61,4.85,8.51,6.82,15.54A26.2,26.2,0,0,1,110.28,93.82Z"/><circle cx="51.1" cy="51.08" r="30.93"/><path d="M91.36,82.31a6.38,6.38,0,1,0,0,9A6.38,6.38,0,0,0,91.36,82.31Z"/><path d="M93.35,93.32a6.37,6.37,0,1,0,9,0A6.37,6.37,0,0,0,93.35,93.32Z"/></g></svg>