<svg xmlns="http://www.w3.org/2000/svg" viewBox="0 0 200 200"><title>icon-keyboard-globe</title><g id="Layer_2" data-name="Layer 2"><path d="M197.44,100A97.45,97.45,0,0,0,100,2.56h0a97.44,97.44,0,0,0,0,194.88h0A97.45,97.45,0,0,0,197.44,100ZM19,108H44.37a158.65,158.65,0,0,0,4,29H27.47A80.68,80.68,0,0,1,19,108ZM181,92H155.63a158.65,158.65,0,0,0-4-29h20.87A80.68,80.68,0,0,1,181,92Zm-41.43,0H108V63h27.15A143.44,143.44,0,0,1,139.61,92ZM108,47V20.54c6.23,3,12.37,9.4,17.59,18.52a84.8,84.8,0,0,1,4,8ZM92,20.54V47H70.42a84.8,84.8,0,0,1,4-8C79.63,29.94,85.77,23.56,92,20.54ZM92,63V92H60.39a143.44,143.44,0,0,1,4.46-29ZM44.37,92H19a80.68,80.68,0,0,1,8.51-29H48.34A158.65,158.65,0,0,0,44.37,92Zm16,16H92v29H64.85A143.44,143.44,0,0,1,60.39,108ZM92,153v26.5c-6.23-3-12.37-9.4-17.59-18.52a84.8,84.8,0,0,1-4-8Zm16,26.5V153h21.58a84.8,84.8,0,0,1-4,8C120.37,170.06,114.23,176.44,108,179.46Zm0-42.5V108h31.61a143.44,143.44,0,0,1-4.46,29Zm47.63-29H181a80.68,80.68,0,0,1-8.51,29H151.66A158.65,158.65,0,0,0,155.63,108Zm6.16-61H146.86a103.69,103.69,0,0,0-9.43-19.33A82,82,0,0,1,161.79,47ZM62.57,27.71A103.69,103.69,0,0,0,53.14,47H38.21A82,82,0,0,1,62.57,27.71ZM38.21,153H53.14a103.69,103.69,0,0,0,9.43,19.33A82,82,0,0,1,38.21,153Zm99.22,19.33A103.69,103.69,0,0,0,146.86,153h14.93A82,82,0,0,1,137.43,172.29Z"/></g></svg>