<svg xmlns="http://www.w3.org/2000/svg" viewBox="0 0 200 200"><title>icon-tray-private-browsing</title><g id="Layer_2" data-name="Layer 2"><path d="M58.89,82.56C39.47,83.4,31.47,95,31.47,97.82s12.87,10.91,25.45,10.91,27.42-4.61,27.42-8.72A22.79,22.79,0,0,0,58.89,82.56Z"/><path d="M141.11,82.56h0A22.78,22.78,0,0,0,115.66,100c0,4.11,14.83,8.72,27.42,8.72s25.45-8,25.45-10.91S160.53,83.4,141.11,82.56Z"/><path d="M156.79,64c13.08,0,21.18,1.48,24.08,4.39,2.18,2.2,3.21,7.52,3.14,16.29-.23,31.23-12.46,51.4-31.14,51.4-6.23,0-12.93-4.82-20-9.93-9.15-6.59-19.53-14-32.84-14s-24.13,7.58-33.59,14.27c-7.06,5-13.74,9.71-19.28,9.71C28.45,136,16.22,115.87,16,84.65c-.07-8.77,1-14.1,3.14-16.29C22,65.45,30.12,64,43.21,64c16.48,0,25.53,3.74,34.28,7.37C84.27,74.14,91.27,77,100,77s15.74-2.9,22.52-5.71C131.27,67.7,140.33,64,156.79,64m0-11.94C124.84,52,115.48,65.11,100,65.11S75.17,52,43.21,52,3.87,59.94,4.05,84.74C4.35,124.66,22.52,148,47.13,148c18.76,0,33.74-24,52.87-24s32.92,24,52.87,24c24.61,0,42.78-23.32,43.08-63.25C196.13,59.94,188.74,52,156.79,52Z"/></g></svg>