<svg xmlns="http://www.w3.org/2000/svg" xmlns:xlink="http://www.w3.org/1999/xlink" viewBox="0 0 200 200"><defs><style>.cls-1{opacity:0.8;}.cls-2{fill:url(#radial-gradient);}</style><radialGradient id="radial-gradient" cx="-169.75" cy="420.35" r="132.83" gradientTransform="translate(226.98 -215.29) scale(0.75 0.75)" gradientUnits="userSpaceOnUse"><stop offset="0" stop-color="#d11ed1"/><stop offset="0.23" stop-color="#dd728e"/><stop offset="0.37" stop-color="#f4e525"/><stop offset="0.49" stop-color="#519602"/><stop offset="0.61" stop-color="#09ad53"/><stop offset="0.76" stop-color="#0a6ee5"/><stop offset="0.88" stop-color="#9a4bf7"/><stop offset="1" stop-color="#f708f1"/></radialGradient></defs><title>icon-voicecommand-searching-color</title><g id="Layer_2" data-name="Layer 2"><g class="cls-1"><path class="cls-2" d="M100,199.5c-1,0-2.08,0-3-.05s-2.07-.09-3-.15-2.07-.15-3-.24-2.06-.22-3-.35-2.06-.29-3-.44-2-.35-3-.54-2-.42-3-.64-2-.48-3-.73-2-.55-2.93-.83-2-.61-2.9-.92-2-.68-2.86-1-1.94-.74-2.83-1.11-1.91-.8-2.79-1.2-1.88-.86-2.75-1.28-1.85-.92-2.7-1.37-1.82-1-2.65-1.46-1.79-1-2.61-1.54-1.75-1.1-2.55-1.63-1.71-1.15-2.49-1.7-1.67-1.2-2.44-1.78L42,179.46l-1.43-1c-.79-.55-1.68-1.19-2.45-1.77s-1.63-1.25-2.39-1.85-1.59-1.3-2.32-1.93-1.56-1.36-2.27-2-1.51-1.4-2.2-2.08-1.47-1.45-2.14-2.15-1.42-1.51-2.07-2.23-1.37-1.55-2-2.28-1.33-1.6-1.93-2.36-1.27-1.64-1.85-2.42-1.21-1.68-1.76-2.48-1.17-1.72-1.69-2.53-1.11-1.76-1.61-2.59-1-1.8-1.53-2.64-1-1.83-1.43-2.7-.94-1.86-1.36-2.74-.87-1.88-1.26-2.77-.81-1.92-1.17-2.82-.75-2-1.08-2.86-.69-2-1-2.89-.62-2-.89-2.92-.56-2-.8-3-.5-2-.71-3-.43-2-.6-3-.37-2.06-.52-3-.29-2.06-.41-3-.23-2.06-.32-3-.16-2.08-.21-3-.1-2.07-.12-3,0-2.07,0-3,0-2.08.08-3,.11-2.07.18-3,.17-2.07.27-3,.23-2.06.37-3,.3-2,.47-3,.36-2,.56-3,.43-2,.65-2.95.5-2,.76-2.94.56-2,.84-2.91.63-2,.94-2.87c.18-.53.38-1.09.59-1.65s.33-1.14.49-1.67c.28-.92.61-2,.92-2.88s.68-1.94,1-2.85.75-1.92,1.11-2.81.81-1.9,1.21-2.78.86-1.88,1.29-2.75.93-1.85,1.38-2.71,1-1.81,1.47-2.65,1-1.79,1.56-2.62,1.1-1.75,1.64-2.56,1.16-1.71,1.72-2.5,1.21-1.69,1.8-2.46S23.1,36,23.71,35.26s1.32-1.6,1.95-2.33,1.38-1.56,2-2.27,1.43-1.52,2.11-2.21S31.28,27,32,26.32s1.52-1.42,2.24-2.06,1.57-1.37,2.31-2,1.61-1.32,2.38-1.92,1.65-1.26,2.44-1.83,1.69-1.21,2.49-1.76,1.73-1.15,2.55-1.67S48.16,14,49,13.5s1.8-1,2.65-1.51,1.83-1,2.7-1.42,1.86-.92,2.74-1.32S59,8.39,59.87,8s1.92-.8,2.82-1.15,1.94-.74,2.85-1.06,2-.67,2.89-1,2-.61,2.91-.87,2-.54,2.93-.77,2-.48,3-.68,2-.41,3-.58,2-.34,3-.48,2-.28,3-.38,2-.22,3-.29,2.06-.15,3-.19,2.06-.08,3-.09,2.06,0,3,0L100,.56l1.74-.05c1,0,2.06,0,3,0s2.06.05,3,.09,2.06.11,3,.19,2,.18,3,.29,2,.24,3,.38,2,.31,3,.48,2,.38,3,.58,2,.45,3,.68,2,.51,2.93.77,2,.58,2.92.87,2,.64,2.88,1,1.95.71,2.85,1.06,1.93.77,2.82,1.15,1.9.83,2.78,1.24,1.88.89,2.74,1.33,1.85.95,2.7,1.41,1.82,1,2.65,1.51,1.78,1.07,2.6,1.59,1.75,1.13,2.55,1.67,1.71,1.19,2.49,1.76,1.68,1.24,2.44,1.83,1.63,1.3,2.38,1.92,1.58,1.34,2.31,2,1.54,1.39,2.24,2.06,1.5,1.44,2.18,2.13,1.45,1.49,2.11,2.2,1.4,1.54,2,2.28,1.34,1.57,1.95,2.33,1.3,1.62,1.89,2.39,1.24,1.66,1.8,2.45,1.19,1.71,1.73,2.52,1.13,1.73,1.64,2.56,1.07,1.77,1.55,2.61,1,1.8,1.47,2.66,1,1.83,1.38,2.7.9,1.87,1.29,2.75.84,1.89,1.21,2.78.77,1.91,1.11,2.81.71,1.94,1,2.85.64,2,.92,2.88l.5,1.68c.2.56.4,1.12.58,1.64.31.91.65,1.95.94,2.87s.59,2,.84,2.91.53,2,.76,2.93.46,2,.65,3,.4,2,.57,3,.33,2,.46,3,.27,2,.37,3,.2,2.06.28,3,.13,2.08.17,3.05.07,2.07.08,3,0,2.08,0,3-.07,2.08-.13,3.05-.13,2.07-.21,3-.2,2.07-.32,3-.26,2.07-.41,3-.34,2-.52,3-.39,2-.6,3-.47,2-.71,3-.53,2-.8,3-.59,2-.89,2.92-.66,2-1,2.89-.72,2-1.08,2.86-.79,1.93-1.17,2.82-.85,1.9-1.27,2.78-.9,1.87-1.35,2.74-1,1.83-1.43,2.68-1,1.81-1.53,2.65-1.08,1.77-1.6,2.58-1.14,1.74-1.69,2.54-1.2,1.7-1.77,2.48-1.25,1.66-1.85,2.42-1.3,1.62-1.93,2.36-1.34,1.57-2,2.28-1.4,1.53-2.07,2.23-1.44,1.48-2.14,2.15-1.49,1.43-2.2,2.08-1.53,1.38-2.27,2-1.57,1.33-2.32,1.93-1.62,1.27-2.39,1.85-1.66,1.22-2.45,1.77l-1.43,1-1.38,1.07c-.77.57-1.65,1.22-2.44,1.78s-1.69,1.17-2.49,1.7-1.73,1.12-2.55,1.63-1.77,1.06-2.6,1.54-1.81,1-2.66,1.46-1.83,1-2.7,1.37-1.87.89-2.75,1.28-1.9.83-2.79,1.2-1.92.77-2.83,1.11-1.94.7-2.86,1-2,.64-2.9.92-2,.58-2.93.83-2,.51-3,.73-2,.45-3,.64-2,.38-3,.54-2.06.31-3,.44-2.06.25-3,.35-2.07.18-3,.24-2.07.12-3,.15S101,199.5,100,199.5Zm-8.93-4.36.18,0c.93.09,2,.18,2.91.24s2,.11,2.92.14c1.86.06,4,.06,5.84,0,.93,0,2-.08,2.92-.14s2-.15,2.91-.24l.18,0c-.84,0-1.75,0-2.54,0s-2,0-2.92-.06-2-.09-2.91-.16l-.56,0-.56,0c-.92.07-2,.12-2.91.16s-2,0-2.91.06S91.91,195.16,91.07,195.14ZM62.35,178.66,64.62,180c.73.42,1.58.89,2.33,1.3s1.63.85,2.39,1.23,1.65.8,2.43,1.15,1.68.75,2.48,1.08,1.71.7,2.51,1,1.74.64,2.56.92,1.76.59,2.59.84,1.79.53,2.63.76,1.8.47,2.65.67,1.83.42,2.69.59,1.84.36,2.71.51,1.86.29,2.73.41,1.87.24,2.75.33L100,191l1.93-.18c.88-.09,1.88-.21,2.75-.33s1.87-.27,2.73-.41,1.86-.33,2.71-.51,1.84-.38,2.69-.59,1.81-.44,2.65-.67,1.8-.5,2.63-.76,1.77-.56,2.59-.84,1.75-.61,2.56-.92,1.72-.67,2.52-1,1.69-.72,2.47-1.08,1.67-.77,2.43-1.15,1.63-.83,2.39-1.23,1.6-.88,2.33-1.3l2.27-1.36-.1,0c-.8.26-1.73.54-2.54.77s-1.74.48-2.56.69-1.75.42-2.57.6-1.75.37-2.57.52-1.76.3-2.58.43-1.76.24-2.58.34-1.76.19-2.58.26-1.76.13-2.57.17-1.75.07-2.57.09-1.74,0-2.55,0-1.74,0-2.54-.08-1.73-.09-2.53-.16-1.71-.15-2.5-.24-1.7-.21-2.49-.32l-1.82-.29-1.82.29c-.79.11-1.69.23-2.49.32s-1.7.18-2.5.24-1.72.13-2.53.16-1.72.07-2.54.08H85.57c-.82,0-1.75-.05-2.57-.09s-1.75-.1-2.57-.17-1.76-.16-2.58-.26-1.76-.22-2.58-.34-1.76-.28-2.58-.43-1.76-.34-2.57-.52-1.75-.4-2.57-.6-1.75-.46-2.56-.69-1.74-.51-2.55-.77Zm90.29-6.56c-.59.54-1.23,1.13-1.81,1.64s-1.42,1.22-2.1,1.77-1.46,1.18-2.16,1.72l-2.22,1.65c-.72.51-1.55,1.08-2.28,1.58s-1.59,1-2.34,1.51-1.62,1-2.4,1.43-1.66.95-2.44,1.37-1.7.89-2.5,1.29-1.73.83-2.55,1.2-1.76.79-2.59,1.13-1.63.67-2.42,1l1.12-.24c.88-.2,1.88-.45,2.75-.67s1.88-.51,2.75-.77,1.85-.56,2.71-.85,1.84-.62,2.7-.94,1.82-.68,2.66-1,1.81-.74,2.64-1.11,1.78-.81,2.6-1.21,1.76-.86,2.57-1.29,1.73-.92,2.52-1.37,1.71-1,2.49-1.46,1.67-1,2.44-1.53l.9-.6c.29-.23.57-.45.83-.67.72-.58,1.52-1.25,2.22-1.85s1.47-1.3,2.15-1.92,1.43-1.34,2.08-2,1.38-1.39,2-2.05,1.34-1.43,1.95-2.11,1.29-1.47,1.88-2.17,1.23-1.51,1.79-2.23,1.19-1.54,1.73-2.28,1.13-1.57,1.65-2.32,1.08-1.62,1.56-2.38,1-1.64,1.49-2.42c.19-.32.39-.65.58-1-.53.66-1.13,1.38-1.67,2s-1.26,1.46-1.87,2.12-1.31,1.41-1.93,2-1.35,1.37-2,2-1.39,1.31-2.06,1.91-1.42,1.27-2.1,1.84-1.46,1.21-2.15,1.76-1.5,1.17-2.21,1.69-1.52,1.11-2.25,1.61-1.55,1-2.29,1.53-1.58,1-2.33,1.45S153.33,171.71,152.64,172.1ZM44.32,176.29l.9.6c.77.5,1.66,1.06,2.44,1.53s1.69,1,2.48,1.46,1.72,1,2.53,1.37,1.75.9,2.57,1.29,1.77.84,2.6,1.21,1.79.77,2.64,1.11,1.81.72,2.66,1,1.84.66,2.7.94,1.85.6,2.72.85,1.86.54,2.73.76,1.88.48,2.76.68l1.12.24c-.79-.3-1.66-.65-2.42-1s-1.78-.75-2.59-1.13-1.74-.81-2.55-1.2-1.71-.87-2.5-1.29-1.67-.92-2.44-1.37-1.64-1-2.4-1.43-1.6-1-2.34-1.51-1.56-1.07-2.28-1.58l-2.22-1.65c-.69-.54-1.48-1.16-2.16-1.72s-1.43-1.19-2.09-1.77-1.23-1.1-1.81-1.64c-.7-.39-1.45-.82-2.12-1.22s-1.6-1-2.33-1.45-1.57-1-2.29-1.53-1.55-1.09-2.25-1.61-1.51-1.14-2.21-1.69-1.47-1.19-2.15-1.76-1.45-1.24-2.11-1.84-1.4-1.29-2.05-1.91-1.36-1.34-2-2-1.33-1.4-1.93-2.06-1.29-1.44-1.87-2.12-1.14-1.36-1.67-2c.19.34.39.68.58,1,.46.78,1,1.66,1.49,2.42S25.52,156,26,156.71L27.68,159c.54.73,1.17,1.56,1.73,2.27s1.21,1.53,1.8,2.23,1.26,1.49,1.87,2.17,1.31,1.44,1.94,2.11,1.37,1.41,2,2.05,1.41,1.36,2.09,2,1.45,1.32,2.15,1.92,1.49,1.27,2.21,1.85Zm66.92,2.35h3.12c.78,0,1.66-.05,2.44-.09s1.67-.1,2.44-.16,1.68-.16,2.46-.25,1.67-.21,2.45-.32,1.67-.27,2.45-.41,1.68-.32,2.46-.49,1.66-.38,2.44-.58,1.66-.43,2.44-.65,1.65-.49,2.42-.74,1.64-.54,2.41-.82,1.63-.6,2.39-.9,1.62-.66,2.37-1,1.6-.72,2.35-1.07,1.59-.77,2.32-1.14,1.44-.76,2.13-1.14c.57-.53,1.19-1.14,1.73-1.68s1.24-1.26,1.8-1.86,1.2-1.29,1.74-1.91,1.14-1.32,1.66-2,1.1-1.36,1.6-2,1-1.39,1.52-2,1-1.41,1.45-2.08.95-1.44,1.37-2.12.9-1.47,1.3-2.16.85-1.48,1.22-2.18.8-1.5,1.15-2.21.74-1.53,1.07-2.24.68-1.54,1-2.27.63-1.55.91-2.28.58-1.56.83-2.3.53-1.57.76-2.31c.06-.22.13-.44.2-.66-.27.35-.53.71-.78,1-.47.62-1,1.3-1.5,1.9s-1.06,1.26-1.56,1.83-1.08,1.21-1.6,1.77-1.12,1.17-1.65,1.7-1.14,1.13-1.69,1.64-1.17,1.09-1.73,1.58-1.21,1-1.78,1.5-1.23,1-1.81,1.44-1.25,1-1.84,1.37-1.28.9-1.88,1.3-1.3.85-1.91,1.23-1.31.8-1.93,1.16-1.33.75-1.95,1.09-1.35.7-2,1-1.36.65-2,.94-1.14.51-1.7.75c-.4.46-.84,1-1.24,1.4s-1,1.1-1.5,1.6-1.07,1.08-1.58,1.58-1.1,1.05-1.63,1.53-1.15,1-1.7,1.48-1.18,1-1.75,1.44-1.23,1-1.82,1.39-1.26.92-1.86,1.33-1.31.89-1.93,1.29-1.34.84-2,1.22-1.37.81-2,1.17-1.4.76-2.07,1.11-1.45.72-2.13,1-1.48.68-2.18,1-1.5.64-2.21.92-1.53.58-2.26.84Zm-61.56-9.73c.68.38,1.44.79,2.12,1.14s1.58.79,2.32,1.14,1.6.74,2.35,1.07,1.61.68,2.37,1,1.62.63,2.39.9,1.64.57,2.41.82,1.65.52,2.42.74,1.66.46,2.44.65,1.67.41,2.44.58,1.67.34,2.45.49l2.46.41c.78.11,1.67.23,2.45.32s1.67.18,2.46.25,1.66.12,2.44.16,1.66.07,2.44.09h3.12l-1.23-.43c-.73-.26-1.55-.56-2.26-.84s-1.52-.62-2.21-.92-1.49-.66-2.18-1-1.46-.7-2.12-1-1.43-.75-2.09-1.11-1.39-.79-2-1.17-1.36-.83-2-1.23-1.32-.86-1.92-1.28-1.29-.9-1.87-1.33-1.25-.94-1.82-1.39-1.2-1-1.75-1.44-1.16-1-1.7-1.48-1.12-1-1.63-1.54-1.08-1.06-1.57-1.56-1-1.1-1.52-1.62-.83-.93-1.23-1.39c-.56-.24-1.16-.5-1.7-.75s-1.36-.63-2-.94-1.35-.68-2-1-1.34-.73-2-1.09-1.32-.78-1.93-1.16-1.31-.82-1.91-1.23-1.28-.87-1.88-1.3-1.26-.92-1.84-1.37-1.24-1-1.81-1.44-1.22-1-1.78-1.5-1.18-1.06-1.73-1.58-1.16-1.1-1.69-1.64-1.14-1.15-1.65-1.7-1.1-1.2-1.6-1.77-1.07-1.24-1.55-1.83-1-1.28-1.51-1.9c-.25-.32-.51-.68-.78-1,.07.22.14.45.2.66.23.74.5,1.58.76,2.31s.55,1.57.83,2.3.61,1.56.91,2.28.66,1.55,1,2.26.72,1.54,1.07,2.25.77,1.51,1.15,2.21.82,1.49,1.22,2.19.87,1.47,1.3,2.15.93,1.45,1.37,2.12,1,1.42,1.45,2.08,1,1.4,1.52,2,1.08,1.37,1.6,2,1.12,1.34,1.66,2,1.17,1.3,1.74,1.9,1.22,1.28,1.8,1.87S49.11,168.38,49.68,168.91Zm16.09-8.24.46.42c.5.45,1.08,1,1.6,1.4s1.12.93,1.65,1.36,1.16.9,1.71,1.31,1.2.87,1.77,1.26,1.23.83,1.82,1.21,1.26.8,1.87,1.16,1.29.76,1.91,1.1,1.34.73,2,1.05,1.36.69,2,1,1.4.64,2.06.93,1.42.6,2.09.86,1.46.56,2.15.81,1.47.51,2.17.73,1.51.47,2.22.67,1.52.42,2.24.59,1.55.38,2.28.53l2.25.45,2.25-.45c.73-.15,1.56-.35,2.28-.53s1.54-.39,2.25-.59,1.51-.45,2.21-.67,1.49-.49,2.18-.74,1.46-.53,2.14-.8,1.43-.58,2.09-.86,1.41-.63,2.06-.93,1.38-.66,2-1,1.35-.7,2-1,1.31-.75,1.91-1.11,1.29-.78,1.88-1.16l1.81-1.21c.57-.39,1.22-.85,1.77-1.26s1.17-.89,1.71-1.31,1.14-.92,1.65-1.36,1.1-1,1.6-1.4c.15-.13.31-.27.46-.42l-.34.09c-.65.18-1.4.36-2,.51s-1.39.31-2,.44-1.4.26-2.05.36-1.39.21-2,.3-1.38.16-2,.22-1.38.12-2,.16-1.36.07-2,.09l-2,0c-.63,0-1.35,0-2-.05s-1.34-.06-2-.11-1.32-.1-1.93-.17-1.31-.15-1.91-.24-1.29-.19-1.88-.29l-1.86-.36c-.58-.12-1.25-.27-1.82-.41s-1.23-.31-1.8-.47-1.2-.35-1.76-.53c-.25-.07-.51-.16-.77-.25l-.77.25c-.56.18-1.2.37-1.76.53s-1.22.33-1.8.47-1.24.29-1.82.41-1.26.25-1.86.36-1.28.21-1.88.29-1.3.17-1.91.24-1.31.13-1.93.17-1.33.09-2,.11-1.34,0-2,.05l-2,0c-.63,0-1.36-.05-2-.09s-1.38-.1-2-.16-1.39-.14-2-.22-1.39-.19-2-.3-1.4-.24-2-.36-1.39-.29-2-.44-1.4-.33-2-.51ZM13.19,127.74c.25.6.51,1.23.76,1.79.36.81.78,1.72,1.16,2.52s.83,1.7,1.24,2.48.88,1.66,1.31,2.42.94,1.63,1.39,2.38,1,1.59,1.46,2.33,1,1.55,1.53,2.27,1.08,1.51,1.6,2.21,1.12,1.48,1.66,2.15,1.17,1.44,1.73,2.09,1.21,1.4,1.79,2,1.25,1.35,1.85,2,1.29,1.31,1.9,1.9,1.32,1.25,2,1.82,1.36,1.2,2,1.75l-.06-.09c-.5-.68-1.05-1.48-1.52-2.19s-1-1.51-1.45-2.22-.94-1.54-1.36-2.26-.89-1.57-1.29-2.3-.83-1.58-1.2-2.33-.78-1.6-1.12-2.35-.73-1.62-1-2.38-.67-1.63-1-2.4-.61-1.65-.88-2.42-.55-1.66-.79-2.43-.5-1.67-.71-2.45-.45-1.68-.63-2.46-.39-1.68-.55-2.46-.32-1.69-.46-2.47c-.1-.58-.2-1.22-.29-1.83l-.84-1.65c-.35-.72-.74-1.54-1.07-2.27s-.7-1.57-1-2.32-.65-1.6-.94-2.36-.59-1.62-.85-2.39-.55-1.65-.79-2.44-.49-1.68-.71-2.47-.44-1.7-.63-2.51-.39-1.72-.55-2.53-.34-1.75-.47-2.57-.28-1.77-.39-2.59-.23-1.78-.31-2.62-.17-1.8-.22-2.64-.11-1.8-.14-2.65-.05-1.81-.05-2.66V88c-.2.82-.42,1.75-.59,2.58s-.37,1.79-.52,2.63-.3,1.8-.42,2.65-.25,1.82-.35,2.68-.19,1.83-.26,2.69-.13,1.85-.17,2.72-.07,1.84-.08,2.72,0,1.85,0,2.72.05,1.87.1,2.75.1,1.86.18,2.73.17,1.87.27,2.74.23,1.88.36,2.75.29,1.86.45,2.73.35,1.86.54,2.72C12.89,126.44,13,127.1,13.19,127.74Zm164.6-2.94c-.09.61-.19,1.25-.29,1.82-.14.79-.3,1.69-.46,2.48s-.36,1.68-.55,2.46-.41,1.67-.62,2.46-.48,1.67-.72,2.45-.52,1.66-.79,2.43-.58,1.65-.87,2.42-.65,1.64-1,2.4-.69,1.63-1,2.38-.75,1.61-1.12,2.35-.81,1.59-1.2,2.32-.87,1.58-1.28,2.3-.93,1.56-1.37,2.27-1,1.52-1.45,2.23-1,1.49-1.52,2.18l0,.08c.64-.54,1.36-1.17,2-1.74s1.35-1.23,2-1.82,1.31-1.28,1.9-1.9,1.27-1.32,1.85-2,1.23-1.37,1.79-2,1.19-1.41,1.73-2.09,1.14-1.46,1.66-2.15,1.1-1.5,1.6-2.21,1-1.54,1.53-2.28,1-1.57,1.46-2.32,1-1.61,1.39-2.38.91-1.65,1.31-2.43.86-1.67,1.24-2.47.8-1.71,1.16-2.52c.25-.56.51-1.18.76-1.79s.3-1.3.43-1.9c.19-.86.39-1.85.54-2.72s.32-1.87.45-2.74.26-1.86.36-2.73.2-1.87.28-2.75.13-1.86.17-2.73.08-1.87.1-2.74,0-1.87,0-2.73,0-1.86-.08-2.73-.1-1.85-.17-2.71-.17-1.84-.26-2.69-.22-1.83-.34-2.68-.28-1.81-.43-2.65-.34-1.8-.52-2.64-.38-1.76-.59-2.57v.09c0,.86,0,1.83-.05,2.67s-.08,1.81-.14,2.66-.14,1.79-.22,2.63-.2,1.78-.31,2.61-.25,1.78-.39,2.6-.3,1.75-.47,2.57-.36,1.73-.55,2.53-.42,1.72-.63,2.51-.47,1.69-.71,2.47-.52,1.67-.79,2.44-.57,1.64-.85,2.4-.63,1.61-.94,2.35-.67,1.59-1,2.32-.72,1.55-1.08,2.27C178.37,123.68,178.07,124.25,177.79,124.8ZM60,154.63l1.34.51c.6.23,1.3.48,1.91.68s1.3.43,1.92.62,1.31.38,1.92.54,1.31.34,1.92.48,1.31.29,1.92.41,1.31.24,1.92.34,1.3.2,1.91.27l1.9.22c.61.05,1.29.11,1.89.14s1.29.07,1.88.09,1.28,0,1.86,0,1.27,0,1.85,0,1.25-.06,1.83-.1,1.23-.1,1.8-.16,1.22-.14,1.78-.22,1.2-.18,1.75-.28,1.19-.21,1.73-.33c.32-.06.66-.14,1-.22-.49-.23-1-.5-1.51-.74s-1-.55-1.52-.81-1-.58-1.48-.86l-1.43-.9c-.45-.29-1-.63-1.39-.94l-1.34-1c-.42-.32-.89-.68-1.29-1s-.85-.7-1.24-1-.82-.72-1.19-1.06-.78-.74-1.14-1.09-.75-.76-1.09-1.12-.72-.77-1-1.14-.68-.78-1-1.15l-.94-1.18c-.29-.38-.61-.81-.88-1.2s-.57-.81-.83-1.2-.54-.83-.78-1.22-.5-.83-.72-1.22-.47-.84-.67-1.24l-.07-.13-.15,0L71,137.1c-.44-.09-.95-.2-1.39-.31s-.95-.24-1.4-.37L66.8,136l-1.39-.47L64,135l-1.4-.58-1.4-.64c-.45-.21-1-.47-1.4-.7s-.95-.5-1.39-.75-.93-.54-1.37-.8l-1.37-.87-1.35-.92c-.43-.3-.91-.66-1.33-1s-.9-.69-1.32-1l-1.29-1.09c-.41-.36-.87-.77-1.27-1.15s-.85-.81-1.24-1.2-.8-.81-1.17-1.2c0,.34.06.69.1,1,.06.56.14,1.2.22,1.76s.18,1.19.28,1.75.22,1.21.34,1.77.27,1.21.4,1.77.31,1.2.47,1.77.35,1.21.53,1.78.4,1.2.6,1.77.43,1.2.65,1.76.49,1.2.73,1.76.52,1.19.79,1.75.57,1.19.85,1.74.61,1.17.92,1.72.65,1.16,1,1.7.7,1.16,1,1.69.74,1.14,1.1,1.66.79,1.13,1.18,1.64.83,1.11,1.23,1.62Zm45.93,3c.34.08.68.16,1,.22.54.12,1.17.24,1.73.33s1.19.2,1.75.28,1.21.16,1.78.22,1.23.12,1.81.16,1.24.08,1.82.1,1.26,0,1.85,0,1.26,0,1.86,0,1.28-.05,1.88-.09,1.29-.09,1.89-.14l1.9-.22c.61-.07,1.3-.17,1.91-.27s1.31-.22,1.92-.34,1.31-.27,1.92-.41,1.31-.32,1.92-.48,1.31-.36,1.93-.54,1.3-.41,1.91-.62,1.31-.45,1.92-.68l1.33-.51.9-1.11c.4-.51.85-1.1,1.23-1.61s.81-1.12,1.18-1.65.76-1.13,1.11-1.66.72-1.15,1-1.69.68-1.15,1-1.7.64-1.17.92-1.72.59-1.18.85-1.74.55-1.19.79-1.75.51-1.2.72-1.76.47-1.2.66-1.76.42-1.21.6-1.78.37-1.2.53-1.77.33-1.21.47-1.77.28-1.21.4-1.77.24-1.21.34-1.77.2-1.2.28-1.75.16-1.2.22-1.76c0-.32.07-.67.1-1-.37.39-.79.83-1.16,1.2s-.85.83-1.25,1.2-.86.79-1.27,1.15l-1.29,1.09c-.42.34-.9.71-1.32,1s-.91.68-1.33,1l-1.35.92c-.44.29-.93.6-1.37.87s-.93.55-1.38.8-.94.53-1.39.75-.94.48-1.38.7l-1.4.63c-.45.2-1,.41-1.41.59s-.95.37-1.4.52-1,.34-1.41.48l-1.4.42-1.39.36c-.44.11-1,.22-1.39.31l-1.37.26-.16,0-.07.13c-.2.4-.45.84-.67,1.24s-.48.83-.73,1.23-.51.82-.76,1.2-.57.84-.84,1.22-.59.81-.88,1.18-.63.81-.93,1.18l-1,1.16c-.32.37-.7.78-1,1.14s-.73.76-1.09,1.12-.77.74-1.14,1.09-.8.73-1.19,1.06-.84.71-1.24,1-.87.69-1.29,1l-1.34,1c-.43.3-.94.64-1.38.93s-1,.62-1.44.9-1,.59-1.48.86-1,.56-1.52.81S106.44,157.36,106,157.59ZM77.27,137.88l0,.05c.21.36.47.76.7,1.11l.75,1.09c.25.35.54.74.81,1.08s.57.74.84,1.08l.9,1.05c.3.34.64.71,1,1s.67.7,1,1,.7.68,1,1,.74.67,1.1,1,.76.65,1.13.94.8.64,1.19.92.83.62,1.23.9.87.59,1.28.86.89.57,1.32.83l1.37.79c.44.24,1,.52,1.4.75s1,.49,1.45.71,1,.47,1.49.67l1.53.64,1.21.45,1.21-.46c.5-.19,1.05-.42,1.53-.62l1.49-.68c.47-.22,1-.48,1.45-.71s1-.51,1.41-.76.93-.53,1.36-.79.91-.55,1.32-.82.88-.58,1.27-.86.85-.6,1.23-.89.82-.63,1.19-.92.79-.65,1.14-1,.76-.65,1.09-1,.73-.68,1-1,.69-.69,1-1,.65-.7,1-1,.61-.72.89-1.05.59-.73.86-1.08.55-.73.79-1.08.53-.75.77-1.1.48-.74.69-1.1l0-.05h-.47c-.41,0-.88,0-1.29,0l-1.29,0-1.27-.08-1.23-.12-1.21-.16-1.19-.2-1.16-.24-1.12-.28-1.11-.31c-.34-.11-.73-.23-1.06-.35s-.72-.25-1-.38l-1-.4-1-.44-.93-.47-.9-.49-.86-.51-.83-.54c-.25-.17-.54-.37-.78-.55s-.52-.39-.75-.58-.48-.39-.7-.58-.47-.41-.68-.6-.44-.42-.63-.62l-.25-.26-.24.26-.64.62-.67.6c-.22.18-.47.4-.71.58l-.75.58c-.24.18-.53.38-.78.55l-.82.53c-.28.18-.59.36-.87.52l-.9.49c-.29.15-.62.32-.93.46s-.65.31-1,.44-.69.29-1,.41-.69.26-1,.38-.72.24-1.06.35l-1.09.31-1.14.28-1.16.24-1.19.2c-.37.06-.82.11-1.21.16l-1.24.12-1.26.08-1.28,0c-.41,0-.89,0-1.31,0Zm80.14-19.72V119c0,.58,0,1.25,0,1.84s-.06,1.26-.11,1.85-.1,1.27-.17,1.87-.15,1.28-.24,1.88-.19,1.28-.3,1.89-.24,1.28-.36,1.88-.29,1.3-.44,1.9-.32,1.3-.5,1.91-.37,1.29-.56,1.89-.43,1.29-.64,1.89-.47,1.3-.71,1.9-.51,1.28-.77,1.87-.56,1.28-.84,1.87-.61,1.26-.91,1.85-.65,1.26-1,1.84-.7,1.24-1,1.82-.75,1.23-1.12,1.79c-.06.1-.12.2-.19.3l.54-.31c.59-.34,1.25-.73,1.82-1.09s1.24-.78,1.8-1.16,1.22-.83,1.77-1.23,1.2-.87,1.75-1.29,1.17-.92,1.71-1.36,1.15-1,1.68-1.43,1.12-1,1.64-1.49,1.09-1,1.6-1.55,1.07-1.09,1.56-1.61,1-1.13,1.51-1.67,1-1.18,1.47-1.74,1-1.21,1.42-1.79.94-1.25,1.37-1.85.91-1.29,1.32-1.9.86-1.33,1.26-2,.83-1.36,1.2-2,.77-1.36,1.12-2c.1-.73.2-1.56.27-2.29s.15-1.59.21-2.33.1-1.59.13-2.32,0-1.59.05-2.32,0-1.57,0-2.3-.05-1.57-.1-2.29-.1-1.55-.17-2.27-.15-1.54-.24-2.25-.21-1.52-.32-2.22-.25-1.5-.39-2.2-.29-1.49-.45-2.17-.35-1.47-.52-2.14-.39-1.45-.59-2.11-.43-1.42-.65-2.07-.48-1.4-.71-2-.52-1.37-.78-2-.56-1.34-.84-2c-.08-.18-.16-.37-.25-.56,0,.12,0,.23,0,.35,0,.67-.09,1.44-.15,2.11s-.14,1.43-.22,2.09-.18,1.4-.28,2-.23,1.4-.35,2-.28,1.38-.42,2-.31,1.35-.48,2-.35,1.33-.53,1.94-.4,1.3-.6,1.9-.43,1.28-.65,1.87-.48,1.26-.71,1.84-.51,1.22-.76,1.78-.54,1.2-.81,1.75-.58,1.17-.87,1.71-.61,1.14-.91,1.66-.64,1.1-1,1.61-.67,1.07-1,1.56-.7,1-1,1.52ZM26,123.57c.35.65.76,1.38,1.12,2s.81,1.38,1.2,2,.85,1.34,1.26,2,.89,1.3,1.32,1.9.92,1.27,1.37,1.85,1,1.23,1.42,1.79,1,1.19,1.47,1.74,1,1.15,1.51,1.67,1.06,1.11,1.56,1.61,1.09,1.07,1.61,1.56,1.11,1,1.64,1.48,1.13,1,1.67,1.43,1.16.94,1.71,1.36,1.19.89,1.75,1.29,1.2.85,1.77,1.23,1.22.8,1.8,1.16,1.23.75,1.82,1.09l.54.31c-.07-.1-.13-.2-.19-.3-.37-.57-.78-1.22-1.12-1.79s-.72-1.24-1-1.82-.69-1.25-1-1.84-.63-1.26-.91-1.85-.59-1.27-.84-1.87-.54-1.28-.78-1.88-.49-1.28-.7-1.88-.45-1.3-.64-1.9-.39-1.29-.56-1.9-.35-1.29-.5-1.89-.31-1.3-.44-1.9-.26-1.3-.37-1.9-.21-1.28-.3-1.88-.17-1.29-.23-1.88-.13-1.28-.17-1.87-.09-1.27-.11-1.85,0-1.26,0-1.84v-.82l-.48-.66-1-1.52c-.32-.49-.68-1-1-1.56s-.66-1.1-1-1.62-.62-1.11-.9-1.65-.6-1.16-.87-1.71-.56-1.18-.81-1.75-.53-1.21-.76-1.78-.49-1.25-.71-1.84-.45-1.26-.65-1.87-.42-1.29-.6-1.9-.37-1.32-.53-1.94-.34-1.34-.48-2-.29-1.36-.41-2-.25-1.38-.36-2-.2-1.39-.28-2-.16-1.42-.22-2.09-.11-1.44-.15-2.11c0-.11,0-.23,0-.35l-.26.57c-.27.61-.57,1.32-.83,2s-.54,1.36-.77,2-.5,1.38-.72,2-.45,1.4-.65,2.07-.41,1.43-.59,2.11-.36,1.45-.52,2.14-.32,1.48-.46,2.17-.27,1.49-.38,2.2-.23,1.51-.32,2.23-.17,1.52-.24,2.24-.13,1.54-.17,2.27-.08,1.56-.1,2.29,0,1.56,0,2.3,0,1.57.06,2.31.07,1.59.12,2.33.13,1.59.21,2.34S25.88,122.84,26,123.57Zm-19.49-3,0,.17c.2.91.45,1.94.68,2.85s.51,1.93.77,2.82.57,1.91.85,2.8.64,1.9.95,2.77.69,1.88,1,2.74.75,1.85,1.12,2.7a1.11,1.11,0,0,0,.07.16c-.28-.79-.56-1.64-.81-2.41s-.59-1.91-.84-2.8-.53-1.92-.75-2.82c0-.18-.09-.36-.13-.55l-.22-.52c-.34-.86-.72-1.85-1-2.72s-.67-1.88-1-2.77S6.73,121.32,6.49,120.52Zm184,8.44c0,.18-.09.36-.13.54-.22.9-.5,1.92-.75,2.82s-.56,1.91-.84,2.8-.53,1.61-.8,2.39l.06-.14c.37-.85.78-1.83,1.12-2.7s.72-1.86,1-2.74.66-1.88.94-2.76.61-1.91.86-2.81.54-1.92.77-2.82.48-1.94.68-2.85l0-.17c-.24.8-.5,1.66-.76,2.43s-.64,1.88-1,2.76-.7,1.86-1,2.72C190.68,128.6,190.61,128.78,190.53,129Zm-88.09-2.35.09.1c.15.17.32.35.48.51l.53.51.56.51.59.48c.19.16.42.33.62.48l.67.47.7.46.73.43.77.42.8.4.83.38.87.35.91.33.92.3,1,.28,1,.24,1,.21,1,.18,1.08.14,1.1.11,1.13.07,1.14,0,1.16,0,1.19,0,1.2-.1.35,0c.05-.11.1-.21.14-.32.16-.35.33-.76.47-1.12s.29-.75.42-1.11.26-.75.36-1.1.24-.76.33-1.11.2-.74.29-1.08.17-.75.24-1.09l.19-1.07c.06-.33.11-.71.15-1s.09-.72.12-1,.06-.7.08-1,0-.69,0-1v-1c0-.33,0-.67,0-1s0-.66-.07-1-.06-.63-.1-.91-.08-.62-.13-.9-.1-.59-.16-.86-.12-.57-.19-.83-.14-.56-.21-.81-.16-.53-.24-.77-.17-.52-.26-.75l-.28-.71-.31-.7c-.09-.21-.21-.44-.31-.64s-.23-.43-.34-.62l-.07-.13-.55.13-.73.14-.72.11c-.23,0-.49.06-.71.07l-.68,0h-.67l-.65,0a6.33,6.33,0,0,1-.64-.06,5.77,5.77,0,0,1-.62-.09l-.59-.11-.57-.15-.55-.17-.51-.2-.51-.22c-.14-.08-.32-.17-.46-.26a5.06,5.06,0,0,1-.44-.26l-.42-.31c-.12-.09-.26-.21-.38-.32s-.24-.22-.34-.33l-.34-.39a4.39,4.39,0,0,1-.27-.39,3.45,3.45,0,0,1-.25-.41,3,3,0,0,1-.18-.4c-.07-.17-.13-.32-.17-.45a3.92,3.92,0,0,1-.1-.46,2.68,2.68,0,0,1-.06-.52,3.22,3.22,0,0,1,0-.44,3.86,3.86,0,0,1,.06-.54,4.26,4.26,0,0,1,.12-.43,3.41,3.41,0,0,1,.19-.5,4.42,4.42,0,0,1,.23-.4,2.82,2.82,0,0,1,.29-.4,2.48,2.48,0,0,1,.32-.35,2.17,2.17,0,0,1,.35-.3,3.28,3.28,0,0,1,.38-.27l.44-.25.42-.18.45-.15.5-.11c.13,0,.32,0,.48-.07l.49,0h.52l.51,0,.53.08.53.11.53.14.55.19.55.22c.17.07.37.16.54.25l.55.29.55.33.54.36.54.4.53.44.53.47c.17.16.36.35.52.52s.34.35.5.53.25.29.38.44l.13-.06.63-.3.64-.34.65-.38.65-.41.64-.45c.22-.15.45-.33.65-.49s.45-.35.65-.52l.65-.57.63-.6.62-.64c.2-.21.43-.46.62-.68l.61-.73c.19-.23.4-.5.58-.74s.4-.55.58-.81.39-.56.56-.83l.54-.87c.16-.28.35-.61.51-.91s.34-.63.49-.94.33-.66.47-1,.31-.69.44-1,.29-.72.42-1.06.26-.73.37-1.07.25-.76.35-1.12.22-.78.32-1.15.19-.8.28-1.19c0-.1.05-.22.07-.33L140,86.1c-.29-.26-.63-.54-.92-.78s-.63-.52-.93-.75-.63-.48-.93-.69-.64-.45-.94-.65-.65-.43-.95-.61-.65-.39-1-.56l-.94-.52-1-.47c-.31-.15-.66-.3-1-.43s-.64-.28-.94-.39l-.94-.35-.93-.3-.92-.27-.92-.23-.89-.18-.89-.15-.86-.11-.85-.08-.83,0h-.82l-.78,0-.77,0-.75.08c-.22,0-.48.06-.71.1l-.69.13-.14,0c0,.19,0,.39,0,.56s-.06.52-.09.75-.07.48-.12.7-.1.48-.14.69-.12.47-.18.68-.14.45-.21.65-.14.41-.21.59l-.27.61c-.07.17-.17.37-.26.55s-.2.37-.29.52l-.33.52-.32.45c-.12.16-.24.32-.36.45s-.24.27-.36.39l-.38.38-.39.33-.4.29c-.15.11-.3.2-.43.28l-.44.23-.45.19c-.16.06-.33.11-.48.15a3,3,0,0,1-.45.1,3.87,3.87,0,0,1-.46.06,3,3,0,0,1-.51,0,4.43,4.43,0,0,1-.48,0l-.42-.09a3.53,3.53,0,0,1-.49-.16,2.3,2.3,0,0,1-.42-.2,3.35,3.35,0,0,1-.42-.26l-.39-.33c-.1-.1-.22-.22-.32-.34a3.46,3.46,0,0,1-.29-.4c-.07-.11-.16-.26-.23-.4l-.19-.45a3.94,3.94,0,0,1-.14-.49,4.17,4.17,0,0,1-.09-.46c0-.11,0-.27,0-.42v-.5c0-.18,0-.35,0-.5a4.63,4.63,0,0,1,.09-.49,5,5,0,0,1,.12-.49,3.94,3.94,0,0,1,.15-.45c.07-.2.14-.37.2-.51s.16-.33.25-.49.16-.3.25-.45.22-.34.32-.5.22-.29.34-.45.24-.3.37-.44.27-.3.4-.44l.45-.44c.15-.14.33-.29.49-.42s.33-.28.51-.41.36-.27.54-.39l.58-.37.62-.36.64-.34.67-.31.52-.22s0-.09,0-.13c0-.23-.06-.49-.09-.71s-.08-.49-.13-.72-.1-.49-.16-.73-.12-.5-.18-.73-.15-.53-.23-.77-.18-.53-.27-.77-.19-.53-.29-.78-.23-.53-.34-.78-.25-.55-.38-.8-.27-.53-.41-.79-.3-.55-.45-.8-.33-.54-.5-.8-.36-.55-.54-.8-.38-.54-.57-.79-.42-.55-.63-.8-.44-.53-.66-.78l-.69-.77-.74-.76-.79-.75-.83-.73c-.27-.23-.58-.49-.87-.71s-.61-.48-.9-.7-.64-.47-1-.68-.67-.45-1-.65-.7-.44-1-.63L100,57l-.31.18c-.33.19-.7.42-1,.62l-1,.66-1,.68c-.29.21-.62.47-.9.69l-.87.72c-.27.23-.57.5-.83.74s-.54.5-.78.74-.52.52-.75.77-.48.52-.7.77l-.66.78-.61.78c-.19.26-.4.54-.58.8l-.54.79-.49.8c-.16.27-.32.56-.46.81s-.29.53-.41.79-.27.55-.38.8l-.34.78c-.1.25-.21.53-.29.78s-.19.53-.27.77-.16.52-.22.76-.14.51-.19.74-.12.5-.16.73-.09.49-.13.72-.06.48-.09.69v.15l.52.22.67.31.65.34.61.36.58.38c.17.11.38.26.55.39a5.08,5.08,0,0,1,.51.41l.47.41c.16.14.32.3.45.44a6,6,0,0,1,.42.45c.11.12.26.3.37.45a5.3,5.3,0,0,1,.34.45c.1.15.21.31.3.46s.2.34.28.49.16.32.23.47a4.78,4.78,0,0,1,.19.48,4.5,4.5,0,0,1,.16.48,5,5,0,0,1,.12.49,4.63,4.63,0,0,1,.09.49c0,.16,0,.34,0,.5V85a4.23,4.23,0,0,1,0,.5c0,.15,0,.31-.08.46s-.09.32-.14.45l-.19.45-.22.39a4.43,4.43,0,0,1-.3.41c-.1.12-.22.24-.32.35s-.28.24-.41.33a3.16,3.16,0,0,1-.4.25,3,3,0,0,1-.44.21l-.44.15-.48.09a3.47,3.47,0,0,1-.49,0,2.32,2.32,0,0,1-.45,0l-.47,0-.48-.11-.46-.15-.43-.18-.45-.24c-.13-.07-.28-.17-.42-.26s-.28-.2-.4-.3l-.41-.34L85.3,87c-.12-.12-.26-.27-.38-.41s-.23-.28-.34-.43-.22-.3-.32-.45-.22-.34-.32-.5l-.3-.54c-.09-.18-.19-.38-.27-.57s-.17-.37-.25-.57L82.9,83c-.07-.2-.14-.43-.2-.64s-.13-.46-.18-.67-.11-.47-.15-.69-.09-.49-.12-.72-.07-.5-.09-.73,0-.39,0-.58l-.14,0c-.21-.05-.46-.09-.69-.13l-.72-.11-.74-.07-.77,0-.86,0h-.73l-.84,0-.85.08-.86.11-.89.15c-.29,0-.61.12-.9.19l-.91.22-.92.27-.92.3c-.31.11-.65.23-.94.35s-.65.26-1,.39-.64.28-.94.43-.65.31-1,.47l-1,.52c-.3.17-.64.37-.94.56s-.65.4-1,.6-.65.44-.95.66-.64.46-.93.69l-.94.75-.9.78-.27.24c0,.12,0,.23.08.34.08.38.18.81.27,1.18s.21.79.32,1.15.23.76.35,1.11.25.74.38,1.08.27.72.41,1,.29.7.44,1,.32.68.47,1,.33.65.49.94.35.63.52.91.36.61.54.88.37.57.55.83l.58.79c.18.25.4.52.59.76s.4.49.6.72l.62.68.62.64.64.61.63.55.66.53.65.49c.2.15.44.31.65.45s.43.28.64.41l.64.37c.21.12.44.24.65.34s.43.22.63.31l.13.06.37-.43c.17-.19.35-.38.52-.55s.34-.35.51-.5.36-.33.52-.48l.55-.44c.16-.13.35-.27.52-.39l.55-.37.54-.32.55-.3.55-.25c.18-.08.37-.16.55-.22s.38-.13.55-.18.37-.11.53-.15l.54-.11.53-.08.5,0h.51l.5,0,.5.07.47.11.46.15.43.19a4,4,0,0,1,.41.22l.38.26c.14.12.27.23.37.33s.23.23.33.35.21.28.29.4.17.3.23.43a2.94,2.94,0,0,1,.17.43,3.78,3.78,0,0,1,.13.47,4.1,4.1,0,0,1,.06.49c0,.15,0,.33,0,.49a3.78,3.78,0,0,1-.06.47,4.64,4.64,0,0,1-.11.51c0,.1-.09.27-.15.41s-.14.31-.21.46-.14.25-.23.38a3.81,3.81,0,0,1-.29.4q-.16.21-.33.39c-.08.09-.22.22-.33.33l-.39.32c-.14.11-.29.22-.43.31l-.45.28-.45.24c-.16.07-.33.16-.5.22a4.81,4.81,0,0,1-.53.2c-.15.06-.36.12-.54.18l-.57.14-.58.12-.62.08a6.12,6.12,0,0,1-.63.06l-.65,0h-.68l-.69,0c-.21,0-.47,0-.7-.07l-.71-.11-.74-.14-.55-.13-.07.13c-.11.19-.23.42-.34.62l-.32.65c-.09.21-.2.45-.29.67s-.2.5-.29.73-.18.49-.26.74-.17.53-.24.78l-.22.81c-.06.26-.13.56-.18.84s-.12.57-.16.85-.1.61-.13.89-.08.62-.1.92-.06.63-.07.93,0,.66,0,1,0,.66,0,1,0,.69,0,1,0,.69.08,1,.07.71.12,1,.09.71.15,1.05.13.73.2,1.07.15.74.24,1.09.18.74.28,1.09.21.74.32,1.09.25.76.38,1.12.27.75.41,1.11.31.76.47,1.11c0,.11.09.21.14.32l.35,0,1.2.1,1.18,0L79,134l1.14,0,1.11-.07,1.11-.11,1.07-.14,1.05-.18,1-.21,1-.24,1-.28.92-.3.9-.33.88-.35.83-.38.8-.4c.26-.13.54-.28.77-.42l.74-.44.69-.45.67-.47.63-.48.59-.49.55-.5c.18-.16.36-.35.52-.51s.34-.35.49-.52l.09-.09-.29-.48c-.13-.22-.26-.46-.37-.67s-.22-.43-.31-.64-.21-.45-.29-.65-.17-.44-.25-.63-.15-.44-.21-.63-.13-.46-.18-.65-.11-.44-.14-.64-.08-.41-.11-.61,0-.41-.07-.61,0-.38,0-.57,0-.38,0-.56,0-.38,0-.55,0-.38.06-.54.06-.38.09-.53a4.93,4.93,0,0,1,.13-.52,3.23,3.23,0,0,1,.15-.47,3.46,3.46,0,0,1,.2-.5c0-.12.13-.28.2-.42s.17-.29.26-.42a3.67,3.67,0,0,1,.27-.38c.1-.13.22-.26.31-.36l.36-.34a4.34,4.34,0,0,1,.39-.29c.11-.08.27-.17.41-.25a4.09,4.09,0,0,1,.44-.2l.47-.15a4.16,4.16,0,0,1,.48-.09,4.24,4.24,0,0,1,.94,0,2.7,2.7,0,0,1,.48.09,4.75,4.75,0,0,1,.46.14c.13,0,.29.13.43.2s.3.17.43.26l.34.25.38.36c.09.1.21.23.31.36s.18.23.27.36.2.32.27.45.14.28.21.43.13.32.19.48a3.92,3.92,0,0,1,.15.48,4.39,4.39,0,0,1,.13.52c0,.14.06.33.09.5s0,.37.06.54,0,.38,0,.55,0,.39,0,.57,0,.42,0,.62,0,.39-.07.58-.07.42-.1.61-.1.44-.15.64-.11.42-.17.62-.14.43-.22.64-.16.44-.25.65-.19.44-.28.65-.21.43-.32.64-.24.45-.36.66Zm26.27-17.8c.06.11.11.22.17.32l.39.79c.11.26.25.55.36.82s.23.58.33.86.22.6.32.89.19.62.28.91.18.66.25,1,.16.65.22,1,.14.68.19,1,.11.71.15,1,.09.72.12,1.06.06.74.08,1.09,0,.75,0,1.11v1.11c0,.37,0,.78-.05,1.15s-.05.79-.08,1.16-.09.8-.13,1.18-.11.81-.18,1.19-.14.82-.22,1.2-.18.84-.27,1.23-.21.83-.32,1.22-.24.85-.36,1.24-.28.84-.42,1.24c-.05.14-.1.29-.16.44h.06l1.26-.33,1.28-.38,1.28-.43,1.27-.48,1.28-.53c.41-.18.87-.39,1.28-.59s.87-.42,1.27-.63.87-.46,1.27-.69.86-.49,1.26-.74l1.26-.79,1.24-.85c.4-.28.84-.61,1.23-.9l1.21-1c.38-.31.82-.68,1.19-1s.8-.7,1.17-1,.79-.75,1.15-1.11.77-.78,1.13-1.16.75-.82,1.09-1.21.74-.86,1.07-1.26l.81-1c0-.44,0-.89-.06-1.3s-.07-1.13-.12-1.65-.11-1.11-.18-1.63-.15-1.09-.23-1.6-.18-1.08-.28-1.57-.21-1.06-.33-1.55-.25-1-.37-1.52-.28-1-.43-1.48-.31-1-.46-1.45-.34-1-.51-1.41-.37-1-.55-1.39-.39-.92-.58-1.34l-.63-1.3c-.2-.41-.45-.87-.66-1.27s-.46-.84-.69-1.22-.49-.82-.72-1.18-.51-.79-.76-1.15-.52-.75-.78-1.09-.54-.73-.8-1.06-.57-.71-.84-1l0,0c-.05.16-.09.32-.14.46-.11.4-.26.86-.39,1.25s-.28.83-.42,1.21-.31.82-.47,1.18-.33.79-.49,1.15-.36.76-.53,1.1-.37.73-.56,1.07-.39.71-.58,1-.41.68-.61,1-.43.66-.64,1L138,101c-.21.28-.46.6-.68.87l-.69.82c-.23.26-.49.55-.72.79s-.5.52-.73.75-.5.49-.74.7-.51.46-.75.66-.52.44-.77.63l-.77.58-.77.53-.77.49-.79.46c-.24.14-.53.29-.78.41Zm-82.19,8.07c.26.34.55.7.81,1s.72.87,1.07,1.27.74.83,1.09,1.21.77.8,1.13,1.16.78.76,1.15,1.11.79.73,1.17,1,.81.7,1.19,1,.83.66,1.22,1,.83.62,1.22.9.85.59,1.24.85.85.55,1.25.79l1.26.74c.41.23.87.48,1.28.69s.86.44,1.27.63.88.41,1.28.59l1.28.53,1.28.48,1.28.43c.4.13.86.26,1.26.37s.87.24,1.27.34h.06c-.06-.15-.11-.3-.16-.44-.14-.4-.29-.85-.42-1.24s-.25-.84-.36-1.23-.23-.84-.32-1.23-.19-.84-.27-1.23-.16-.81-.22-1.2-.13-.81-.18-1.19-.09-.8-.13-1.18-.06-.79-.08-1.15,0-.79,0-1.15v-1.13c0-.36,0-.76,0-1.1s0-.75.08-1.1.07-.71.12-1.05.09-.71.15-1,.12-.68.19-1,.14-.67.22-1,.16-.66.25-1,.19-.64.28-.93.21-.6.31-.88.23-.6.35-.87.24-.56.36-.82.26-.55.38-.79.12-.21.17-.32l-.32-.16-.78-.41-.77-.45c-.25-.15-.54-.33-.78-.5s-.53-.36-.77-.54-.53-.38-.77-.57-.52-.42-.77-.63l-.75-.65-.73-.71c-.25-.23-.52-.51-.74-.75s-.49-.53-.72-.79-.47-.55-.69-.82-.47-.59-.68-.88l-.66-.9c-.21-.3-.44-.65-.64-1s-.42-.67-.61-1-.4-.7-.58-1S59.14,96.35,59,96l-.53-1.1c-.16-.36-.34-.78-.5-1.16s-.32-.79-.46-1.17-.29-.82-.42-1.21-.28-.84-.39-1.25c-.05-.14-.09-.3-.13-.45l0,0c-.26.31-.57.68-.83,1s-.55.71-.8,1-.54.74-.78,1.1-.52.77-.76,1.15-.49.79-.72,1.18-.48.82-.69,1.22-.46.86-.66,1.27-.43.88-.62,1.3-.41.91-.59,1.34-.38.94-.55,1.38-.35,1-.51,1.41-.32,1-.46,1.46-.3,1-.43,1.49-.26,1-.37,1.51-.23,1-.33,1.55-.2,1.06-.28,1.56-.16,1.1-.23,1.62-.13,1.1-.18,1.62-.09,1.12-.12,1.65S46.53,116.45,46.52,116.88ZM98,116.4l1.63,1.07L99.21,119v.66c0,.12,0,.25,0,.36a3.74,3.74,0,0,0,0,.39c0,.15,0,.29.07.42s.07.31.1.45l.28.9.18.47c0,.07.06.15.1.23,0-.08.07-.16.1-.23s.13-.32.18-.47l.16-.47c0-.14.08-.3.12-.43s.07-.3.1-.43l.12-.82c0-.12,0-.25,0-.37v-.36l-.39-1.73-.41-.45-1.59-1.21,1.42,1.34ZM18.57,72.93c-.15.76-.3,1.62-.42,2.37s-.26,1.76-.37,2.57-.2,1.75-.28,2.57-.15,1.75-.2,2.56-.09,1.75-.11,2.56,0,1.74,0,2.55,0,1.74.05,2.54.07,1.72.13,2.52.13,1.72.21,2.52.19,1.7.29,2.49.24,1.68.37,2.46.3,1.67.45,2.44.35,1.65.53,2.42.39,1.63.6,2.38.44,1.61.67,2.35.5,1.59.75,2.32c.07.21.15.43.23.65,0-.44,0-.89,0-1.3,0-.77.06-1.65.1-2.42s.11-1.63.18-2.39.17-1.62.26-2.38.22-1.6.34-2.35.26-1.59.4-2.32.32-1.57.49-2.3.36-1.55.55-2.27.41-1.52.62-2.23.46-1.5.69-2.19.51-1.48.76-2.16.55-1.45.82-2.12.59-1.42.88-2.07.64-1.4.95-2,.67-1.35,1-2,.72-1.33,1.06-1.94.63-1.08.95-1.6c.05-.61.11-1.27.18-1.86s.17-1.5.27-2.19.23-1.5.36-2.2.27-1.5.42-2.2.33-1.5.5-2.2.38-1.5.58-2.2.43-1.5.65-2.19.49-1.49.73-2.19.54-1.48.8-2.17.59-1.47.89-2.15.64-1.47.95-2.15.69-1.45,1-2.12.74-1.43,1.11-2.1.79-1.42,1.18-2.07.84-1.4,1.26-2,.89-1.37,1.33-2c.23-.34.48-.71.74-1.07l-.57.4c-.63.44-1.34,1-2,1.43s-1.32,1-1.93,1.51-1.28,1.06-1.88,1.57S36.89,48,36.32,48.57s-1.23,1.16-1.8,1.71-1.2,1.21-1.75,1.78-1.16,1.25-1.69,1.85-1.13,1.28-1.64,1.9-1.09,1.33-1.59,2-1.05,1.38-1.53,2-1,1.41-1.47,2.08-1,1.45-1.4,2.14-.92,1.49-1.34,2.19-.88,1.53-1.28,2.25S20,70,19.63,70.76,18.9,72.22,18.57,72.93ZM168.5,77.14c.32.52.65,1.09.95,1.6s.73,1.32,1.06,1.94.69,1.35,1,2,.66,1.38,1,2,.61,1.41.88,2.07.57,1.44.82,2.12.53,1.47.76,2.16.48,1.49.69,2.19.44,1.52.62,2.24.39,1.54.55,2.26.35,1.56.49,2.3.29,1.58.4,2.32.24,1.6.34,2.35.19,1.62.26,2.38.13,1.63.18,2.4.08,1.64.1,2.41c0,.41,0,.86,0,1.3.07-.22.15-.44.22-.65.25-.73.52-1.58.75-2.32s.47-1.6.67-2.35.42-1.62.6-2.38.37-1.64.53-2.42.32-1.66.45-2.44.26-1.68.37-2.47.21-1.69.29-2.48.16-1.71.21-2.51.1-1.72.13-2.53,0-1.73,0-2.54,0-1.73,0-2.55-.07-1.74-.12-2.56-.12-1.74-.2-2.56-.18-1.75-.28-2.57-.24-1.75-.37-2.57-.27-1.61-.42-2.38c-.33-.7-.71-1.48-1.06-2.17s-.81-1.57-1.2-2.29-.86-1.54-1.28-2.25-.9-1.5-1.34-2.19-1-1.47-1.41-2.14-1-1.43-1.46-2.08-1-1.39-1.53-2-1.07-1.36-1.59-2-1.11-1.31-1.64-1.9-1.15-1.27-1.7-1.85-1.18-1.22-1.74-1.77-1.22-1.18-1.79-1.71-1.25-1.14-1.84-1.65-1.28-1.08-1.89-1.57-1.3-1-1.92-1.51-1.33-1-2-1.43l-.57-.4c.26.36.51.73.74,1.07.44.64.92,1.37,1.34,2s.87,1.39,1.25,2,.82,1.41,1.19,2.07.77,1.43,1.11,2.1.71,1.44,1,2.12.66,1.46,1,2.14.62,1.47.89,2.16.56,1.48.8,2.17.51,1.49.73,2.19.46,1.49.65,2.19.41,1.5.58,2.2.35,1.5.5,2.2.3,1.5.43,2.2.25,1.5.35,2.19.2,1.5.28,2.2S168.45,76.53,168.5,77.14ZM35.32,78.38c0,.48-.06,1-.08,1.43,0,.65-.05,1.39-.05,2s0,1.38,0,2,0,1.36.07,2,.09,1.36.15,2,.13,1.34.2,2,.17,1.32.27,1.93.21,1.31.33,1.91.26,1.29.39,1.88.29,1.26.44,1.85.34,1.25.51,1.82.37,1.22.55,1.79.41,1.19.61,1.74.44,1.17.66,1.71.48,1.14.71,1.67.51,1.12.76,1.63.54,1.09.8,1.59.57,1.06.85,1.54c.16.28.34.59.52.88.07-.54.15-1.14.24-1.66s.19-1.17.3-1.7.24-1.15.36-1.68.26-1.12.4-1.64.31-1.11.46-1.62.34-1.07.51-1.57.37-1.06.55-1.54.4-1,.6-1.5.43-1,.64-1.47.46-1,.68-1.42.49-1,.72-1.39.51-.92.76-1.34l.79-1.3c.26-.41.56-.86.83-1.25s.58-.83.86-1.21.6-.8.89-1.16.62-.77.91-1.12.64-.74.95-1.07.64-.71,1-1l.1-.11,0-.16c-.06-.43-.13-.94-.18-1.39s-.1-1-.13-1.42-.07-1-.09-1.44,0-1,0-1.47,0-1,0-1.48,0-1,.06-1.5.08-1,.12-1.52.11-1,.18-1.54.14-1,.23-1.54.18-1.05.28-1.54.22-1.07.34-1.57.26-1.07.4-1.58.3-1.06.45-1.57.34-1.07.52-1.57.38-1.07.57-1.57.42-1.07.64-1.57.46-1.07.69-1.57.5-1.06.76-1.56.51-1,.78-1.48c-.32.13-.64.27-.93.41-.52.23-1.1.5-1.6.75s-1.08.54-1.58.81-1.07.58-1.57.87l-1.55.93c-.49.31-1.06.67-1.54,1s-1,.71-1.52,1-1,.75-1.49,1.11-1,.8-1.48,1.18-1,.83-1.44,1.23-1,.87-1.41,1.29-1,.92-1.39,1.35-.92,1-1.35,1.41-.9,1-1.31,1.46-.88,1-1.28,1.52-.85,1.07-1.23,1.57-.83,1.1-1.2,1.63-.79,1.14-1.15,1.68ZM144.47,85l.11.11c.3.31.66.69,1,1s.64.72.94,1.07.63.76.92,1.12.6.78.88,1.16.59.81.86,1.21.57.85.83,1.25.54.88.79,1.3.52.91.76,1.34l.72,1.38c.22.45.47,1,.68,1.43s.44,1,.64,1.46.42,1,.6,1.51.38,1,.55,1.54.36,1.07.51,1.58.32,1.09.46,1.6.28,1.12.4,1.65.26,1.14.36,1.68.22,1.15.3,1.7.17,1.13.24,1.66c.18-.29.36-.59.51-.87.28-.49.59-1.05.86-1.55s.55-1.08.8-1.59.52-1.1.76-1.63.49-1.13.71-1.67.46-1.16.66-1.71.42-1.19.61-1.75.39-1.21.55-1.78.36-1.24.51-1.82.31-1.25.44-1.85.28-1.27.39-1.88.24-1.29.33-1.91.19-1.31.27-1.93.15-1.33.2-2,.11-1.34.15-2,.06-1.36.07-2,0-1.38,0-2,0-1.38-.06-2c0-.45,0-1-.08-1.43l-.77-1.2c-.36-.54-.78-1.15-1.15-1.68s-.81-1.12-1.19-1.63-.84-1.08-1.24-1.57-.86-1-1.27-1.51-.89-1-1.32-1.47-.91-1-1.35-1.41-.94-.93-1.38-1.35-1-.89-1.42-1.29-1-.85-1.44-1.23l-1.47-1.18-1.5-1.11c-.48-.34-1-.73-1.52-1s-1-.69-1.53-1l-1.56-.93c-.5-.29-1.07-.6-1.57-.87s-1.07-.56-1.58-.81-1.08-.52-1.59-.75l-.94-.41c.27.47.55,1,.79,1.49s.52,1,.75,1.55.48,1.07.7,1.56.44,1.08.63,1.58.4,1.07.57,1.57.36,1.07.52,1.57.32,1.07.45,1.57.29,1.08.4,1.58.24,1.06.34,1.56.2,1.06.29,1.55.16,1.06.22,1.55.13,1,.18,1.53.08,1,.12,1.51.05,1,.06,1.51,0,1,0,1.48,0,1,0,1.47,0,1-.09,1.45-.08,1-.13,1.41-.11,1-.18,1.39Zm-27.79,17.85.53,1.88-.42.21.22.45,1,.76.28.13.3.11.33.11.37.09.38.08.42.06.44,0,.46,0h.48a4.19,4.19,0,0,0,.5,0l.26,0-.2-.17-.39-.32-.39-.29-.37-.25-.38-.23-.38-.2-.35-.16-.34-.14-.33-.11-1.38-.21-.2,0ZM77.76,106.7l.25,0,.51,0a4,4,0,0,0,.49,0h.46l.43,0,.41-.06.39-.08a3.58,3.58,0,0,0,.35-.09l.33-.1.32-.12,1.08-.65,1.76,1L83,105.36l.2-.39.68-1.94L83,104.79l-.24-.09-.12-2-.2,2-.22,0-1.37.21-.33.11-.34.14-.35.17a3.24,3.24,0,0,0-.37.19l-.39.23-.38.26-.38.28-.39.32Zm107.41-35c.33.72.69,1.52,1,2.23s.72,1.73,1,2.55.66,1.76,1,2.59.61,1.79.87,2.63.56,1.81.8,2.66.49,1.83.71,2.7.43,1.85.62,2.72.38,1.88.54,2.76.32,1.89.45,2.78.26,1.91.36,2.8.19,1.92.27,2.82.12,1.76.16,2.61c.05-.39.08-.77.12-1.14.08-.9.16-1.93.21-2.84s.11-1.94.13-2.85,0-1.94,0-2.85,0-1.95-.06-2.86-.09-2-.15-2.87-.15-1.94-.24-2.85-.22-2-.34-2.85-.28-2-.43-2.85-.34-1.94-.52-2.84-.41-1.92-.62-2.81-.46-1.92-.7-2.81c-.09-.33-.19-.68-.29-1s-.25-.69-.37-1c-.33-.86-.72-1.84-1.08-2.68s-.77-1.81-1.15-2.65-.83-1.77-1.24-2.6-.89-1.75-1.32-2.55-.95-1.72-1.4-2.51-1-1.68-1.48-2.46-1-1.64-1.55-2.4-1.1-1.61-1.63-2.35-1.15-1.57-1.7-2.29-1.2-1.53-1.77-2.23-1.25-1.49-1.84-2.17l-.76-.86c.46.71,1,1.51,1.39,2.21s1,1.66,1.44,2.44.93,1.69,1.35,2.48.87,1.71,1.26,2.52.82,1.73,1.18,2.54.76,1.75,1.1,2.58.7,1.77,1,2.6.64,1.78.91,2.62.58,1.8.83,2.64.52,1.81.75,2.66.46,1.82.65,2.67S185,70.92,185.17,71.71ZM9.92,70.1l-.29,1c-.24.89-.49,1.91-.7,2.8s-.43,1.92-.62,2.82-.37,1.93-.52,2.84-.31,1.94-.43,2.85S7.12,84.39,7,85.29s-.19,2-.25,2.87-.12,2-.15,2.86-.06,2-.06,2.86,0,2,0,2.85.07,1.94.13,2.85.13,1.94.21,2.84c0,.36.08.75.12,1.14,0-.85.1-1.79.16-2.61s.17-1.92.27-2.82.24-1.91.37-2.8.29-1.9.44-2.78.36-1.89.54-2.76.41-1.86.63-2.73.46-1.84.7-2.69.53-1.82.8-2.66.58-1.8.87-2.63.64-1.77,1-2.59.7-1.75,1-2.55.66-1.51,1-2.23c.15-.78.34-1.64.51-2.4s.43-1.82.65-2.67.5-1.81.75-2.66.55-1.8.83-2.64.61-1.79.92-2.62.67-1.78,1-2.6.73-1.76,1.09-2.57.8-1.75,1.19-2.55.85-1.72,1.26-2.51.91-1.7,1.35-2.48,1-1.68,1.44-2.45.93-1.5,1.39-2.21l-.76.86c-.6.68-1.26,1.47-1.84,2.17s-1.21,1.51-1.77,2.23-1.17,1.55-1.7,2.29S20,50.49,19.51,51.25s-1.07,1.63-1.55,2.4-1,1.67-1.48,2.46-1,1.7-1.4,2.51-.91,1.73-1.32,2.55-.86,1.77-1.24,2.6-.8,1.8-1.15,2.65-.75,1.82-1.08,2.68C10.17,69.42,10.05,69.76,9.92,70.1ZM113.74,80.49l-.22.13c-.13.08-.29.18-.41.27l-.41.29-.35.28-.34.29c-.1.09-.2.2-.29.29l-.28.3a2.88,2.88,0,0,0-.22.27,3.07,3.07,0,0,0-.2.27c-.09.12-.15.21-.2.29l-.49,1.17-2,.25,2,.1.08.45.57,1.93-.33-1.93.91,1.77-.69-1.83,1.29,1.54-1-1.69,1-.83.41-.54a3.45,3.45,0,0,0,.2-.32l.19-.35c0-.1.12-.23.17-.35l.34-.86c0-.14.1-.3.14-.45s.1-.34.14-.5S113.72,80.57,113.74,80.49Zm-27.48,0,.06.26c0,.14.08.32.12.48s.1.31.15.45.1.3.16.44.11.28.17.4.13.27.19.39.12.23.18.33.13.22.2.32l.2.28.21.26a2.4,2.4,0,0,0,.21.23l.94.7.48.12,2,.32L89.68,85l2-.42-2,.08-.39-1.25-.14-.25L89,82.9l-.2-.28-.23-.27c-.1-.12-.2-.22-.28-.3s-.2-.21-.3-.3l-.34-.29c-.11-.09-.24-.2-.36-.28a3.37,3.37,0,0,0-.38-.28l-.44-.29ZM67,53.84c-.25.36-.5.74-.72,1.08s-.6,1-.86,1.41-.56,1-.81,1.42-.52,1-.76,1.43-.48,1-.69,1.44-.45,1-.64,1.45-.41,1-.59,1.44-.37,1-.53,1.45-.33,1-.47,1.45-.3,1-.42,1.44-.26,1-.36,1.45-.23,1-.32,1.43-.18,1-.26,1.42-.14,1-.2,1.41-.12,1-.16,1.41-.08.94-.11,1.38,0,.93-.06,1.36,0,.93,0,1.35,0,.92,0,1.33.05.89.08,1.31v.07l.38-.3c.32-.25.71-.53,1-.78L61.57,80l1.06-.68,1.07-.63,1.08-.59,1.07-.53L66.93,77,68,76.6l1.08-.4,1.06-.34c.34-.11.72-.22,1.06-.31l1-.26,1.06-.22,1-.17c.32-.05.69-.1,1-.13s.68-.07,1-.09.68-.05,1-.06h1l1,0,.91.06.89.09c.29,0,.61.08.88.13l.35.06c0-.12,0-.24,0-.35,0-.28.09-.59.15-.87s.12-.6.19-.89.15-.6.23-.89.18-.61.27-.9.2-.63.31-.93.23-.61.35-.91.26-.63.4-.92.29-.64.44-.93.32-.62.48-.92.35-.64.53-.93.38-.63.57-.92.41-.63.62-.92.43-.61.65-.9l.71-.91L89,61c.26-.29.55-.61.81-.88s.57-.59.84-.86.59-.58.88-.85.63-.57.94-.83.65-.55,1-.8l1-.78c.33-.25.72-.52,1.06-.76l.39-.26-.06,0c-.37-.15-.81-.33-1.2-.47L93.34,54c-.41-.13-.87-.28-1.29-.4s-.89-.26-1.31-.37-.91-.23-1.35-.32-.93-.2-1.37-.28-1-.17-1.41-.24-1-.14-1.43-.19-1-.11-1.45-.15L82.25,52c-.48,0-1,0-1.5,0H79.23c-.49,0-1,0-1.54.06s-1.06.06-1.55.11-1.07.1-1.57.16-1.08.14-1.58.22-1.08.18-1.59.28-1.09.21-1.6.33l-1.6.39C67.8,53.59,67.36,53.72,67,53.84ZM121.8,74.61h.89c.3,0,.66,0,1,.06s.68,0,1,.09.69.08,1,.13.7.11,1,.18l1,.21,1,.26c.34.09.72.2,1.06.31s.73.23,1.07.35.73.26,1.07.39.74.29,1.08.44l1.08.49c.34.16.73.36,1.08.54l1.07.58,1.07.63c.34.21.73.46,1.07.69s.72.49,1.05.73l1,.77.37.29v-.05c0-.42.06-.89.08-1.31s0-.91,0-1.34,0-.91,0-1.35,0-.93-.06-1.37-.06-.93-.11-1.38-.1-.95-.15-1.4-.14-1-.21-1.41-.17-1-.26-1.42-.21-1-.32-1.43-.24-1-.36-1.45-.28-1-.42-1.44-.31-1-.47-1.44-.36-1-.53-1.45-.39-1-.59-1.46-.42-1-.64-1.44-.46-1-.69-1.44-.51-1-.76-1.43-.54-1-.8-1.41-.59-1-.87-1.41-.47-.73-.72-1.09l-1.25-.35-1.6-.39c-.51-.12-1.09-.24-1.6-.33s-1.09-.2-1.59-.28-1.07-.16-1.58-.22-1.07-.12-1.57-.16S122.8,52,122.31,52s-1,0-1.54-.06h-1.52c-.48,0-1,0-1.5,0l-1.47.1c-.47,0-1,.09-1.46.15s-1,.12-1.43.19-1,.15-1.41.24-.94.18-1.37.28-.92.21-1.35.32l-1.32.37-1.27.4-1.25.44c-.4.15-.84.32-1.22.48l-.06,0,.39.26c.34.24.73.51,1.06.76s.7.53,1,.78.67.54,1,.8l.94.83.88.84.84.86.8.88.75.89c.24.29.49.62.71.9s.46.63.66.92.43.62.61.91.4.63.57.92l.54.93c.15.29.33.62.47.92s.31.64.45.93.27.63.39.92.25.63.35.92.22.62.31.91.2.62.27.91.17.61.23.89.14.61.19.89.11.59.15.87c0,.11,0,.23,0,.35l.35-.06.87-.13.9-.09.92-.06Zm13.68-24.12.77.25c.56.18,1.19.41,1.74.61s1.17.45,1.72.68,1.18.49,1.72.74,1.17.54,1.71.81,1.16.58,1.7.87,1.15.62,1.68.93,1.14.67,1.66,1,1.13.72,1.65,1.07,1.11.75,1.62,1.12,1.1.8,1.6,1.19,1.08.85,1.57,1.26,1.06.89,1.55,1.31,1,.94,1.51,1.38,1,1,1.48,1.44l1.44,1.5c.45.49,1,1.06,1.4,1.57s.93,1.09,1.36,1.61l.22.27c0-.2-.08-.41-.13-.61-.14-.66-.31-1.41-.47-2.07s-.36-1.41-.54-2.07-.41-1.41-.62-2.07-.46-1.41-.69-2.06-.51-1.4-.76-2-.56-1.4-.83-2-.61-1.38-.91-2-.65-1.37-1-2-.71-1.36-1-2-.75-1.34-1.12-2-.8-1.33-1.19-1.94-.85-1.31-1.26-1.91-.9-1.28-1.33-1.87-1-1.27-1.4-1.85-1-1.24-1.47-1.81L147.31,38c-.49-.53-1.05-1.15-1.56-1.68-.67-.32-1.42-.67-2.09-1s-1.46-.64-2.15-.92-1.47-.58-2.16-.83-1.49-.54-2.19-.77-1.49-.48-2.19-.69-1.5-.43-2.2-.61-1.5-.38-2.2-.54-1.51-.32-2.21-.46l-2.21-.39c-.7-.11-1.5-.22-2.2-.31s-1.5-.17-2.2-.23-1.5-.13-2.19-.17-1.49-.07-2.18-.09-1.49,0-2.17,0l-2.15.05-2.14.12c-.67.05-1.44.12-2.11.2l-.62.06.33.13c.63.24,1.34.53,2,.8s1.31.57,1.91.85,1.28.61,1.87.91l1.83,1,1.77,1c.56.33,1.18.72,1.73,1.06s1.15.75,1.67,1.11l1.63,1.16c.51.38,1.08.81,1.57,1.2s1,.84,1.51,1.24,1,.87,1.47,1.28,1,.89,1.41,1.32.92.91,1.34,1.34.9.95,1.3,1.39.85,1,1.23,1.41.81,1,1.18,1.43.77,1,1.11,1.47Q135.24,50.15,135.48,50.49ZM54.25,36.32c-.51.53-1.07,1.14-1.56,1.69s-1,1.2-1.53,1.77-1,1.22-1.47,1.8-1,1.25-1.39,1.84S47.37,44.7,47,45.3s-.87,1.3-1.26,1.91-.82,1.32-1.19,1.94-.77,1.33-1.12,2-.72,1.35-1,2-.67,1.36-1,2-.63,1.38-.91,2-.58,1.39-.83,2.05-.53,1.39-.76,2-.48,1.4-.69,2.06-.43,1.41-.62,2.07-.38,1.41-.54,2.07-.33,1.41-.47,2.07c0,.2-.09.41-.13.61l.23-.27c.42-.52.92-1.11,1.36-1.62s.94-1.07,1.39-1.55,1-1,1.44-1.51,1-1,1.48-1.44,1-.94,1.51-1.37,1.05-.91,1.54-1.32,1.07-.87,1.58-1.26,1.08-.82,1.59-1.19,1.11-.78,1.63-1.13,1.12-.73,1.65-1.06,1.13-.69,1.66-1,1.15-.65,1.68-.93,1.16-.61,1.7-.87S58,53,58.57,52.77s1.17-.51,1.72-.74,1.18-.47,1.73-.68,1.17-.43,1.73-.61l.77-.25.48-.66c.34-.47.75-1,1.12-1.47s.78-1,1.17-1.43.83-1,1.24-1.41.86-1,1.28-1.38.92-.93,1.35-1.35,1-.91,1.42-1.32,1-.88,1.46-1.28,1-.85,1.51-1.24l1.57-1.2,1.63-1.16,1.67-1.11c.55-.34,1.17-.73,1.73-1.06l1.78-1c.57-.31,1.23-.66,1.82-1s1.26-.63,1.87-.91,1.29-.59,1.91-.85,1.32-.56,2-.8l.33-.13-.62-.06c-.67-.08-1.44-.15-2.11-.2l-2.14-.12-2.15-.05c-.68,0-1.47,0-2.16,0s-1.49.05-2.18.09-1.5.1-2.2.17-1.5.15-2.2.23-1.5.2-2.2.31l-2.21.39c-.7.14-1.5.3-2.21.46s-1.5.36-2.2.54-1.5.4-2.2.61-1.5.46-2.19.69-1.49.51-2.18.76-1.48.57-2.17.84l-2.15.92C55.67,35.65,54.92,36,54.25,36.32ZM46.35,25.4c-.5.43-1,.88-1.46,1.29-.66.59-1.4,1.27-2,1.88s-1.35,1.32-2,1.95-1.3,1.36-1.89,2-1.26,1.4-1.83,2.06S36,36,35.41,36.69s-1.16,1.47-1.68,2.16-1.1,1.5-1.6,2.21-1.06,1.53-1.53,2.25-1,1.56-1.45,2.29-.95,1.59-1.37,2.34-.9,1.61-1.29,2.37-.84,1.62-1.21,2.39-.78,1.66-1.13,2.44-.72,1.65-1,2.43l.06-.08c.51-.69,1.09-1.46,1.61-2.13S25.91,54,26.44,53.3s1.17-1.38,1.73-2S29.38,50,30,49.36s1.25-1.28,1.84-1.87,1.27-1.23,1.88-1.79S35,44.51,35.61,44s1.34-1.14,2-1.66,1.37-1.09,2-1.58,1.4-1,2.07-1.51,1.42-1,2.1-1.43,1.45-.94,2.14-1.36,1.47-.89,2.16-1.28,1.5-.83,2.2-1.2c.52-.28,1.09-.57,1.64-.84.43-.45.89-.9,1.31-1.31.57-.56,1.23-1.19,1.82-1.73s1.27-1.15,1.88-1.67,1.32-1.11,2-1.62,1.35-1.07,2-1.56,1.4-1,2.07-1.5,1.44-1,2.13-1.44,1.48-1,2.18-1.38,1.52-.9,2.24-1.31,1.55-.86,2.29-1.24,1.58-.81,2.34-1.18,1.61-.76,2.38-1.1,1.65-.71,2.43-1,1.68-.66,2.47-1,1.71-.6,2.52-.87l.09,0c-.83.06-1.79.15-2.63.24s-1.81.2-2.65.32-1.81.27-2.65.41l-2.65.5c-.84.17-1.79.39-2.63.59s-1.79.44-2.62.67-1.78.5-2.61.76-1.77.57-2.59.85-1.76.62-2.57.93-1.74.68-2.54,1-1.72.74-2.52,1.11-1.7.8-2.49,1.19-1.67.85-2.45,1.27S48.78,24,48,24.41Zm101.73,7.71c.55.27,1.12.56,1.64.84.71.37,1.51.8,2.2,1.2s1.48.86,2.17,1.28,1.46.91,2.13,1.36,1.44,1,2.11,1.43,1.41,1,2.06,1.51,1.39,1.07,2,1.58,1.36,1.12,2,1.66,1.33,1.17,1.94,1.73,1.29,1.21,1.88,1.8,1.26,1.26,1.84,1.86,1.22,1.31,1.78,1.94,1.18,1.35,1.72,2,1.15,1.4,1.67,2.06,1.11,1.44,1.61,2.13l.06.08c-.32-.78-.7-1.66-1-2.44s-.76-1.66-1.13-2.42-.81-1.65-1.21-2.41-.86-1.61-1.29-2.36-.92-1.6-1.37-2.34-1-1.56-1.45-2.29-1-1.54-1.53-2.25-1.08-1.51-1.6-2.21-1.13-1.48-1.68-2.16-1.18-1.45-1.75-2.11-1.24-1.41-1.83-2.06-1.28-1.37-1.9-2-1.33-1.34-2-1.95-1.38-1.29-2-1.88c-.45-.41-1-.86-1.45-1.28l-1.67-1c-.77-.45-1.64-.94-2.42-1.36s-1.67-.88-2.45-1.27-1.69-.82-2.49-1.19-1.71-.77-2.51-1.1-1.74-.72-2.55-1-1.75-.65-2.57-.93-1.76-.59-2.59-.85-1.77-.53-2.6-.76-1.79-.47-2.63-.67-1.79-.42-2.63-.59l-2.65-.5c-.84-.14-1.81-.29-2.65-.41s-1.81-.24-2.65-.33-1.79-.17-2.63-.23l.09,0c.81.27,1.72.58,2.51.87s1.7.64,2.48,1,1.66.68,2.43,1,1.63.74,2.38,1.1,1.61.79,2.34,1.18,1.57.83,2.29,1.24,1.53.88,2.24,1.31,1.49.93,2.18,1.38,1.46,1,2.13,1.44,1.42,1,2.07,1.5,1.38,1.06,2,1.56,1.34,1.1,1.95,1.62,1.29,1.13,1.88,1.67,1.25,1.17,1.82,1.73C147.19,32.21,147.65,32.66,148.08,33.11ZM80.11,48h.7c.52,0,1.11,0,1.63.06s1.1.06,1.61.1,1.08.1,1.58.16,1.07.13,1.56.21,1.06.17,1.54.26,1,.2,1.51.31,1,.23,1.47.35l1.45.4,1.41.45,1.38.49,1.34.52c.43.18.9.38,1.31.57s.87.4,1.26.6l.14.07.13-.07,1.27-.6c.41-.19.89-.39,1.31-.57l1.34-.52,1.38-.49c.44-.15.95-.31,1.41-.44s1-.29,1.45-.41,1-.25,1.47-.35,1-.22,1.51-.31,1-.19,1.53-.26,1.07-.15,1.57-.21,1.07-.12,1.58-.16l1.62-.11,1.62,0h1.66c.53,0,1.14,0,1.67.06s1.14.07,1.68.12,1.16.11,1.7.18,1.16.15,1.71.23l1.65.29c-.22-.26-.45-.52-.67-.76-.38-.42-.82-.88-1.21-1.29s-.84-.86-1.25-1.25-.89-.85-1.31-1.23-.93-.82-1.37-1.2-1-.79-1.42-1.15-1-.78-1.47-1.13-1-.74-1.52-1.08-1.06-.72-1.56-1-1.1-.69-1.62-1l-1.66-1-1.71-.9c-.55-.28-1.19-.59-1.75-.85s-1.21-.56-1.79-.8-1.25-.52-1.84-.75-1.27-.48-1.88-.69-1.29-.45-1.9-.64-1.32-.4-2-.57L100,31.26l-1.38.37c-.62.17-1.33.38-1.94.57s-1.31.43-1.92.64-1.28.46-1.87.69-1.26.5-1.83.75-1.23.53-1.8.8-1.2.57-1.75.85-1.17.61-1.7.9l-1.67,1c-.52.31-1.11.68-1.62,1s-1.07.7-1.56,1-1,.73-1.52,1.08-1,.76-1.47,1.13-1,.78-1.42,1.15-.94.81-1.36,1.2-.91.83-1.32,1.23-.86.85-1.25,1.25-.83.87-1.21,1.29c-.21.24-.45.5-.67.76.52-.1,1.12-.2,1.64-.28s1.18-.18,1.72-.24,1.16-.13,1.7-.18,1.15-.09,1.68-.12S78.62,48,79.15,48Zm35.55-22.61c.6,0,1.24,0,1.82,0s1.57.05,2.3.1,1.58.1,2.32.17,1.59.16,2.33.25,1.59.21,2.33.33,1.59.26,2.33.41,1.59.32,2.34.49,1.58.37,2.32.56,1.59.43,2.33.65l1.24.38-.55-.42c-.62-.46-1.33-1-2-1.43s-1.37-.94-2-1.37-1.41-.9-2.08-1.3-1.44-.86-2.12-1.25-1.48-.82-2.18-1.18-1.51-.78-2.22-1.12l-2.27-1.05c-.73-.32-1.57-.67-2.32-1s-1.6-.63-2.35-.91-1.63-.58-2.4-.83-1.65-.53-2.42-.76-1.68-.47-2.47-.68-1.69-.42-2.49-.6-1.72-.37-2.52-.52-1.74-.32-2.56-.44-1.6-.24-2.38-.34c-.77.1-1.63.22-2.39.34s-1.74.29-2.54.44-1.73.34-2.53.52-1.7.4-2.49.6-1.68.45-2.46.68-1.67.51-2.43.76-1.64.55-2.4.83-1.61.61-2.35.91-1.59.65-2.32,1-1.55.71-2.26,1.05-1.53.75-2.23,1.12-1.49.79-2.18,1.18-1.46.84-2.12,1.25-1.43.88-2.08,1.3-1.39.93-2,1.37l-2,1.43-.55.42,1.24-.38c.74-.22,1.59-.45,2.33-.65s1.58-.4,2.33-.56,1.58-.35,2.33-.49,1.59-.29,2.33-.41S74.83,26,75.57,26s1.59-.18,2.33-.25,1.58-.13,2.32-.17,1.57-.08,2.31-.1,1.56,0,2.29,0,1.56,0,2.28.05,1.55.08,2.26.13l2.24.2c.72.08,1.52.18,2.23.28s1.49.22,2.19.34,1.48.27,2.16.42,1.23.26,1.82.4l1.82-.4c.68-.15,1.47-.3,2.16-.42s1.5-.24,2.2-.34,1.5-.2,2.22-.28l2.23-.2c.72-.05,1.55-.1,2.27-.13s1.55-.05,2.28-.05ZM156,22.23l.47.3c.79.49,1.68,1.07,2.44,1.59s1.65,1.12,2.4,1.67,1.38,1,2,1.51l-.13-.12c-.7-.61-1.5-1.31-2.22-1.9s-1.54-1.27-2.27-1.84-1.59-1.21-2.34-1.76S154.73,20.52,154,20s-1.66-1.11-2.44-1.61-1.69-1.05-2.5-1.52l-.14-.09c.68.48,1.41,1,2.06,1.48s1.59,1.19,2.32,1.77,1.55,1.24,2.26,1.84ZM51.13,16.78l-.15.09c-.81.47-1.71,1-2.5,1.52S46.81,19.48,46,20s-1.64,1.13-2.39,1.68-1.6,1.19-2.34,1.76S39.75,24.68,39,25.28s-1.52,1.28-2.22,1.9l-.12.11c.66-.5,1.38-1,2-1.51s1.62-1.15,2.39-1.66,1.66-1.1,2.45-1.59l.48-.3.43-.37c.71-.59,1.53-1.26,2.26-1.83s1.57-1.22,2.32-1.77S50.45,17.26,51.13,16.78ZM100,4.48l-1.07,0c-.92,0-2,.11-2.88.19s-2,.18-2.86.29-2,.24-2.85.37-1.93.31-2.83.47-1.92.37-2.81.56-1.91.43-2.79.65-1.89.49-2.76.74-1.87.55-2.73.83-1.84.61-2.7.91-1.82.67-2.66,1-1.8.73-2.63,1.09l-1.05.46c.82-.22,1.73-.46,2.53-.65s1.88-.43,2.76-.61,1.89-.37,2.77-.53,1.89-.3,2.78-.43,1.89-.24,2.77-.34,1.9-.18,2.79-.24,1.89-.12,2.77-.16,1.89-.06,2.78-.07,1.88,0,2.76,0,1.87.06,2.75.11,1.86.13,2.73.2,1.64.16,2.43.26c.79-.1,1.66-.19,2.43-.26s1.86-.15,2.73-.2,1.88-.09,2.76-.11,1.87,0,2.76,0,1.88,0,2.77.07,1.89.09,2.78.16,1.89.15,2.78.24,1.89.22,2.78.34,1.89.28,2.77.43,1.89.35,2.77.53,1.88.4,2.76.61,1.71.43,2.53.65l-1.05-.47c-.83-.35-1.79-.75-2.63-1.08s-1.8-.69-2.66-1-1.84-.63-2.7-.91-1.85-.58-2.73-.83-1.88-.52-2.76-.74-1.9-.45-2.79-.65-1.91-.39-2.81-.56-1.93-.33-2.83-.47-1.94-.27-2.85-.37-2-.21-2.86-.29-2-.15-2.88-.19Z"/></g></g></svg>