<svg xmlns="http://www.w3.org/2000/svg" xmlns:xlink="http://www.w3.org/1999/xlink" viewBox="0 0 200 200"><defs><symbol id="New_Symbol_10" data-name="New Symbol 10" viewBox="0 0 184.09 183.05"><path d="M88.1,1.93,60.61,39.87a4.67,4.67,0,0,0,3.78,7.42h55a4.68,4.68,0,0,0,3.79-7.42L95.67,1.93A4.68,4.68,0,0,0,88.1,1.93Z"/><path d="M97.05,181.12l27.49-37.94a4.67,4.67,0,0,0-3.78-7.42h-55A4.68,4.68,0,0,0,62,143.18l27.49,37.94A4.69,4.69,0,0,0,97.05,181.12Z"/><path d="M1.93,95.86l37.94,27.5a4.68,4.68,0,0,0,7.42-3.79v-55a4.68,4.68,0,0,0-7.42-3.79L1.93,88.29A4.68,4.68,0,0,0,1.93,95.86Z"/><path d="M182.15,88.35l-37.94-27.5a4.68,4.68,0,0,0-7.42,3.79v55a4.67,4.67,0,0,0,7.42,3.78l37.94-27.49A4.67,4.67,0,0,0,182.15,88.35Z"/></symbol></defs><title>icon-keyboard-move-2</title><g id="Layer_2" data-name="Layer 2"><use width="184.09" height="183.05" transform="translate(7.96 8.48)" xlink:href="#New_Symbol_10"/></g></svg>