<svg xmlns="http://www.w3.org/2000/svg" viewBox="0 0 200 200"><title>icon-settings-reportissue</title><g id="Layer_2" data-name="Layer 2"><path d="M106.16,97.34a6.17,6.17,0,0,1-12.33,0V72.71a6.17,6.17,0,0,1,12.33,0ZM100,128.14a6.16,6.16,0,1,1,6.17-6.16A6.16,6.16,0,0,1,100,128.14Zm0-80.07c-30.64,0-55.45,22.43-55.45,50.07a46.49,46.49,0,0,0,8.77,27,11.35,11.35,0,0,1,.88,1.33,6.68,6.68,0,0,1,.89,3.28c0,.45-5.16,18.82-5.16,18.82a2.71,2.71,0,0,0,2.19,3.24,2.1,2.1,0,0,0,.7.08,4.77,4.77,0,0,0,1.07-.16l.46-.2L69,144.44c.26-.13,2.6-1.14,2.89-1.27a9,9,0,0,1,3.23-.58,9.17,9.17,0,0,1,3,.48s.06,0,.06,0,.28.1.43.16c6.67,2.56,14,3.34,21.7,3.34,30.62,0,55.15-20.79,55.15-48.44S130.65,48.07,100,48.07Z"/></g></svg>