<svg xmlns="http://www.w3.org/2000/svg" viewBox="0 0 200 200"><title>icon-immersivemoviemode-transportcontrols-seek+30</title><g id="Layer_2" data-name="Layer 2"><path d="M100,18.41a84.67,84.67,0,0,1,34.2,7.2l7.24-10.49A6.58,6.58,0,0,1,152.8,16l17.38,36.58A6.58,6.58,0,0,1,163.71,62l-40.37-3.24a6.58,6.58,0,0,1-4.89-10.29l6.47-9.38a68.66,68.66,0,1,0,43.74,64,8,8,0,0,1,16,0A84.66,84.66,0,1,1,100,18.41Z"/><path d="M80.11,123.36a19.16,19.16,0,0,1-9.36-2.66l-1.55,4.42a21.46,21.46,0,0,0,11,2.85c10.14,0,15.39-5.91,15.39-12.66,0-5.91-4.22-9.82-9.41-10.85v-.13c5.19-1.88,7.79-5.58,7.79-9.94,0-5.13-3.76-10.06-12.08-10.06a20.06,20.06,0,0,0-11,3.24l1.49,4.16a15.6,15.6,0,0,1,8.45-2.8c5.26,0,7.4,3,7.4,6.38,0,5-5.27,7.14-9.42,7.14H75.56v4.28h3.18c5.53,0,10.85,2.54,10.91,8.45C89.72,118.69,87.45,123.36,80.11,123.36Z"/><path d="M102.17,106.27c.13,14,5.71,21.7,14,21.7,9.36,0,14.67-7.92,14.67-22.28,0-13.44-5.05-21.36-14-21.36C108.28,84.33,102.17,92.12,102.17,106.27Zm22.92-.31c0,10.78-2.79,17.6-8.63,17.6-5.2,0-8.58-6.24-8.58-17.22,0-11.5,3.64-17.59,8.64-17.59C122.44,88.75,125.09,95.56,125.09,106Z"/></g></svg>