<svg xmlns="http://www.w3.org/2000/svg" viewBox="0 0 200 200"><title>icon-bookmarkspage-trash</title><g id="Layer_2" data-name="Layer 2"><path d="M164.45,23.78H122.54A16.67,16.67,0,0,0,105.78,7.4H94.6A16.67,16.67,0,0,0,77.84,23.78H35.93A16.66,16.66,0,0,0,19.17,40.15v2.34a3.12,3.12,0,0,0,3.2,3.12H177.63a3.11,3.11,0,0,0,3.19-3.12V40.15c.39-9-7-16.37-16.37-16.37Z"/><path d="M70.65,93.38a7.59,7.59,0,0,1,15.17,0v62.18a7.59,7.59,0,0,1-15.17,0Zm44.5,0a7.59,7.59,0,0,1,15.17,0v62.18a7.59,7.59,0,0,1-15.17,0ZM33.53,176.22A16.67,16.67,0,0,0,50.29,192.6H150.68a16.67,16.67,0,0,0,16.76-16.38V56.53H33.53Z"/></g></svg>