<svg xmlns="http://www.w3.org/2000/svg" viewBox="0 0 200 200"><title>icon-unlock</title><g id="Layer_2" data-name="Layer 2"><path d="M60.93,166.63h85.64a8.35,8.35,0,0,0,8.33-8.33V98.54a8.36,8.36,0,0,0-8.33-8.33H136.43v-5Z"/><path d="M82.09,90.21V68.64A16.06,16.06,0,0,1,97.91,52.39h4.18A15.68,15.68,0,0,1,115,59.32l12.78-13.79a33.78,33.78,0,0,0-25.7-12.16H97.91C79,33.37,63.57,49.24,63.57,68.64V90.21H53.43a8.36,8.36,0,0,0-8.33,8.33v36.17l41.26-44.5Z"/><rect x="12.98" y="91.67" width="174.05" height="16.65" transform="translate(-41.32 105.34) rotate(-47.16)"/></g></svg>