<svg xmlns="http://www.w3.org/2000/svg" viewBox="0 0 200 200"><title>icon-dialog-video</title><g id="Layer_2" data-name="Layer 2"><path d="M159.87,75.68v48.83a3.73,3.73,0,0,1-5.12,3.46l-28.56-11.51V83.54l28.56-11.42a3.74,3.74,0,0,1,5.12,3.56ZM68.19,86.36A1.87,1.87,0,0,1,71,84.73L95.3,98.37a1.87,1.87,0,0,1,0,3.26L71,115.27a1.87,1.87,0,0,1-2.79-1.63ZM47.61,133.68H115a7.48,7.48,0,0,0,7.48-7.49V73.81A7.48,7.48,0,0,0,115,66.32H47.61a7.48,7.48,0,0,0-7.48,7.49v52.38a7.48,7.48,0,0,0,7.48,7.49Z"/></g></svg>