<svg xmlns="http://www.w3.org/2000/svg" viewBox="0 0 200 200"><title>icon-immersivemoviemode-transportcontrols-volume</title><g id="Layer_2" data-name="Layer 2"><path d="M160.59,38.76a8,8,0,1,0-12.66,9.79,84,84,0,0,1-.18,102.88,8,8,0,1,0,12.63,9.83,100.07,100.07,0,0,0,.21-122.5Z"/><path d="M138,63.44A8,8,0,0,0,125.17,73,43.91,43.91,0,0,1,124,126.75a8,8,0,1,0,12.42,10.08,60,60,0,0,0,13.37-37.72A59.44,59.44,0,0,0,138,63.44Z"/><path d="M90.57,46.11,47,69.72a8.7,8.7,0,0,1-4.15,1H27.3a8.71,8.71,0,0,0-8.72,8.71v40.88a8.71,8.71,0,0,0,8.72,8.71H42.45a8.66,8.66,0,0,1,4.14,1.05l44,23.77a8.72,8.72,0,0,0,12.86-7.66V53.77A8.71,8.71,0,0,0,90.57,46.11Z"/></g></svg>