<?xml version="1.0" encoding="UTF-8" standalone="no"?>
<svg
   xmlns:dc="http://purl.org/dc/elements/1.1/"
   xmlns:cc="http://creativecommons.org/ns#"
   xmlns:rdf="http://www.w3.org/1999/02/22-rdf-syntax-ns#"
   xmlns:svg="http://www.w3.org/2000/svg"
   xmlns="http://www.w3.org/2000/svg"
   xmlns:sodipodi="http://sodipodi.sourceforge.net/DTD/sodipodi-0.dtd"
   xmlns:inkscape="http://www.inkscape.org/namespaces/inkscape"
   viewBox="0 0 200 200"
   id="vector"
   version="1.1"
   sodipodi:docname="ic_icon_browser.svg"
   inkscape:version="0.92.2 5c3e80d, 2017-08-06"
   width="200"
   height="200">
  <metadata
     id="metadata139">
    <rdf:RDF>
      <cc:Work
         rdf:about="">
        <dc:format>image/svg+xml</dc:format>
        <dc:type
           rdf:resource="http://purl.org/dc/dcmitype/StillImage" />
        <dc:title></dc:title>
      </cc:Work>
    </rdf:RDF>
  </metadata>
  <defs
     id="defs137" />
  <sodipodi:namedview
     pagecolor="#ffffff"
     bordercolor="#666666"
     borderopacity="1"
     objecttolerance="10"
     gridtolerance="10"
     guidetolerance="10"
     inkscape:pageopacity="0"
     inkscape:pageshadow="2"
     inkscape:window-width="1085"
     inkscape:window-height="829"
     id="namedview135"
     showgrid="false"
     inkscape:zoom="0.64"
     inkscape:cx="205.78455"
     inkscape:cy="338.37236"
     inkscape:window-x="438"
     inkscape:window-y="46"
     inkscape:window-maximized="0"
     inkscape:current-layer="vector" />
  <path
     id="path"
     d="M 103.07555,14.715305 H 96.92444 C 50.36935,16.838715 13.88449,53.371895 13.88449,100 c 0,46.6281 36.48486,83.14388 83.03995,85.28469 h 6.15111 c 46.5551,-2.14081 83.03996,-38.65659 83.03996,-85.28469 0,-46.628105 -36.48486,-83.161285 -83.03996,-85.284695 z m -78.6463,85.05843 c 0,-9.43353 1.79261,-18.44934 5.02633,-26.76895 3.56764,1.65348 9.63088,3.08069 19.68355,4.29904 -1.21265,7.25791 -1.86291,14.79429 -1.86291,22.45251 0,7.780045 0.66783,15.299025 1.88048,22.469895 -10.05267,1.23577 -16.13348,2.64557 -19.70112,4.29905 -3.23372,-8.30221 -5.02633,-17.31801 -5.02633,-26.751545 z m 8.34793,34.131275 c 2.19682,-1.20094 8.41823,-2.55854 17.99638,-3.68986 3.58522,14.98574 9.71875,27.95249 17.55702,37.47305 -15.28989,-7.01423 -27.83815,-18.95409 -35.5534,-33.78319 z m 64.14726,42.24204 c -2.81193,-0.15665 -6.60804,-2.10601 -9.33211,-2.55854 -12.97004,-6.50949 -25.48316,-24.90661 -30.65009,-46.17557 9.98237,-0.87025 25.46559,0.10442 39.9822,0 z m 0,-54.82588 c -14.09482,0.10443 -28.41811,-0.95728 -39.64828,0.0696 -1.15992,-6.87499 -1.81018,-14.11549 -1.81018,-21.617055 0,-7.39714 0.63268,-14.65505 1.82776,-21.61706 11.23016,1.00949 25.55346,0.41772 39.61313,0.52215 V 121.32116 Z M 100,54.468415 c -2.26712,0 -3.07556,0.64399 -3.07556,2.88924 v 15.22941 c -14.48146,-0.10443 -27.97875,-1.56646 -37.96112,-2.43671 1.19508,-4.87341 2.67134,-9.59018 4.46395,-14.02846 0.84358,-2.08861 -0.17575,-4.43829 -2.2847,-5.29113 -2.10895,-0.83545 -4.48152,0.17405 -5.34267,2.26265 -2.07381,5.11708 -3.77854,10.54746 -5.11421,16.20409 -9.543,-1.13132 -15.74683,-2.48892 -17.92609,-3.68987 7.66253,-14.72466 20.08777,-26.6123 35.27221,-33.66134 -0.8963,1.09651 -1.75746,2.19303 -2.60104,3.37657 -1.31809,1.82753 -0.87872,4.36867 0.96661,5.67405 1.84533,1.28797 4.41122,0.87025 5.72931,-0.95728 4.67485,-6.52689 10.0351,-11.29587 15.71169,-14.1503 2.63619,-0.41772 5.3251,-0.7136 8.04916,-0.87025 v 15.07277 c 0,2.24524 1.82776,4.05537 4.09488,4.05537 2.26713,0 4.09489,-1.82753 4.09489,-4.05537 v -15.05537 c 2.72406,0.15665 5.41297,0.45254 8.04916,0.87026 5.67659,2.83702 11.05442,7.62341 15.72926,14.1503 0.80843,1.11392 2.0738,1.70569 3.35675,1.70569 0.826,0 1.65201,-0.24367 2.37257,-0.74842 1.84533,-1.30537 2.28469,-3.84651 0.9666,-5.65664 -0.84358,-1.18354 -1.72231,-2.29746 -2.60104,-3.37657 15.16687,7.04904 27.60968,18.93668 35.25463,33.66135 -2.17925,1.20094 -8.38308,2.55854 -17.94365,3.68987 -1.33568,-5.65664 -3.02284,-11.08702 -5.11421,-16.2041 -0.84358,-2.0886 -3.21615,-3.0981 -5.34268,-2.26265 -2.10895,0.83544 -3.12828,3.20252 -2.2847,5.29113 1.79261,4.42088 3.26888,9.13765 4.46395,14.02846 -9.98237,0.87025 -23.47966,2.33228 -37.96112,2.43671 v -15.26422 c 0.0527,-2.24525 -0.75571,-2.88924 -3.02283,-2.88924 z m 44.53402,45.30532 c 0,7.501575 -0.65026,14.759475 -1.81019,21.617055 -11.23016,-1.0269 -25.55345,0.0348 -39.64828,-0.0696 V 78.678845 c 14.07725,-0.087 28.40054,0.50475 39.63071,-0.52215 1.19507,6.96201 1.82776,14.21992 1.82776,21.61706 z m -32.12636,73.814775 c -2.72406,0.45253 -6.52017,2.4193 -9.33211,2.55854 v -48.73411 c 14.49904,0.10442 28.03148,1.11392 38.01385,1.98417 -5.16693,21.25155 -15.71169,37.68191 -28.68174,44.1914 z m 19.24418,-5.88291 c 7.83827,-9.52055 13.98938,-22.48731 17.55702,-37.47305 9.57815,1.13133 15.79956,2.48892 17.99638,3.68987 -7.69767,14.81169 -20.22835,26.75155 -35.5534,33.78318 z m 19.20903,-45.46196 c 1.21265,-7.17088 1.88048,-14.68986 1.88048,-22.469905 0,-7.65822 -0.65026,-15.1946 -1.8629,-22.4525 10.05266,-1.23576 16.13347,-2.66297 19.70112,-4.29905 3.21614,8.31961 5.00875,17.33542 5.00875,26.76896 0,9.433525 -1.79261,18.449335 -5.00875,26.768945 -3.6028,-1.67088 -9.66603,-3.09809 -19.7187,-4.31645 z"
     inkscape:connector-curvature="0"
     style="fill:#000000;stroke:#000000;stroke-width:0.17489612" />
</svg>
