<svg xmlns="http://www.w3.org/2000/svg" viewBox="0 0 200 200"><title>icon-moviemode-resize-menu-3x</title><g id="Layer_2" data-name="Layer 2"><path d="M91.52,79.1a17.79,17.79,0,0,1-4.3,12.06q-4.31,5-12.08,6.84v.31q9.18,1.16,13.89,5.57c3.15,3,4.72,6.93,4.72,12q0,10.94-7.93,17t-22.66,6.09a55.14,55.14,0,0,1-21.87-4.09V121.22A49.28,49.28,0,0,0,51,124.84a40.92,40.92,0,0,0,10.47,1.4q7.93,0,11.72-2.7T77,114.89c0-3.56-1.45-6.07-4.35-7.56s-7.54-2.23-13.9-2.23H53V92.82h5.86q8.81,0,12.88-2.31t4.07-7.89Q75.76,74,65,74a24.66,24.66,0,0,0-7.6,1.24,37.33,37.33,0,0,0-8.58,4.31l-7.41-11q10.36-7.47,24.73-7.47,11.77,0,18.59,4.77A15.28,15.28,0,0,1,91.52,79.1Z"/><path d="M118,108.32,99.35,80h17.94l11.25,18.45L139.89,80h17.94L139,108.32l19.75,29.58h-18l-12.18-19.84L116.31,137.9H98.37Z"/></g></svg>