<svg xmlns="http://www.w3.org/2000/svg" viewBox="0 0 200 200"><title>icon-urldrop-globe</title><g id="Layer_2" data-name="Layer 2"><path d="M184.56,100A84.56,84.56,0,0,0,100,15.44h0a84.56,84.56,0,0,0,0,169.12h0A84.56,84.56,0,0,0,184.56,100ZM29.67,106.94h22a138.6,138.6,0,0,0,3.44,25.13H37.05A70,70,0,0,1,29.67,106.94ZM170.33,93.06H148.28a138.6,138.6,0,0,0-3.44-25.13H163A70.19,70.19,0,0,1,170.33,93.06Zm-36,0H106.94V67.93H130.5A123.35,123.35,0,0,1,134.37,93.06ZM106.94,54V31c5.41,2.62,10.74,8.16,15.27,16.07A74.59,74.59,0,0,1,125.67,54ZM93.06,31V54H74.33a74.59,74.59,0,0,1,3.46-6.93C82.32,39.2,87.65,33.66,93.06,31Zm0,36.89V93.06H65.63A123.35,123.35,0,0,1,69.5,67.93ZM51.72,93.06h-22a70,70,0,0,1,7.38-25.13H55.16A138.6,138.6,0,0,0,51.72,93.06Zm13.91,13.88H93.06v25.13H69.5A123.35,123.35,0,0,1,65.63,106.94Zm27.43,39v23c-5.41-2.62-10.74-8.16-15.27-16.07A74.59,74.59,0,0,1,74.33,146Zm13.88,23V146h18.73a74.59,74.59,0,0,1-3.46,6.93C117.68,160.8,112.35,166.34,106.94,169Zm0-36.89V106.94h27.43a123.35,123.35,0,0,1-3.87,25.13Zm41.34-25.13h22.05A70.19,70.19,0,0,1,163,132.07H144.84A138.6,138.6,0,0,0,148.28,106.94ZM153.62,54h-13a89.65,89.65,0,0,0-8.19-16.78A71,71,0,0,1,153.62,54ZM67.52,37.26A89.65,89.65,0,0,0,59.33,54H46.38A71,71,0,0,1,67.52,37.26ZM46.38,146H59.33a89.65,89.65,0,0,0,8.19,16.78A71,71,0,0,1,46.38,146Zm86.1,16.78A89.65,89.65,0,0,0,140.67,146h13A71,71,0,0,1,132.48,162.74Z"/></g></svg>