<svg xmlns="http://www.w3.org/2000/svg" viewBox="0 0 200 200"><title>icon-moviemode-videoplayback-180-stereo-topbottom</title><g id="Layer_2" data-name="Layer 2"><path d="M143.49,153.32a68.93,68.93,0,0,1-14.72,9.14A8,8,0,0,0,135.42,177a85.27,85.27,0,0,0,18.15-11.26,8,8,0,0,0-10.08-12.43Z"/><path d="M108.81,168.11a70.36,70.36,0,0,1-17.34,0,8,8,0,1,0-2,15.87,85.32,85.32,0,0,0,21.34,0,8,8,0,1,0-2-15.87Z"/><path d="M71.53,162.34a68.63,68.63,0,0,1-14.68-9.19,8,8,0,1,0-10.13,12.38,84.88,84.88,0,0,0,18.1,11.34,8,8,0,1,0,6.71-14.53Z"/><path d="M42.63,137.62a68.37,68.37,0,0,1-8-15.38,8,8,0,0,0-15,5.5,84.67,84.67,0,0,0,9.81,19A7.87,7.87,0,0,0,32,149.05a8,8,0,0,0,10.66-11.43Z"/><path d="M175.59,117.48a8,8,0,0,0-10.27,4.76,68.37,68.37,0,0,1-7.95,15.38A8,8,0,0,0,168,149.05a7.87,7.87,0,0,0,2.51-2.34,84.67,84.67,0,0,0,9.81-19A8,8,0,0,0,175.59,117.48Z"/><path d="M27,76.14a8,8,0,0,0,10.56-4A68.7,68.7,0,0,1,143.43,46.6l-4.62,4.62a6.83,6.83,0,0,0,3.06,11.42l26.48,7.09a6.82,6.82,0,0,0,8.36-8.35l-7.1-26.49a6.82,6.82,0,0,0-11.41-3.06l-3.41,3.41A84.69,84.69,0,0,0,22.94,65.57,8,8,0,0,0,27,76.14Z"/><path d="M26.5,104.2h147a8,8,0,0,0,0-16H26.5a8,8,0,0,0,0,16Z"/></g></svg>