<svg xmlns="http://www.w3.org/2000/svg" viewBox="0 0 200 200"><title>icon-settings-privacy policy</title><g id="Layer_2" data-name="Layer 2"><path d="M69.28,82.82H79.86V66a20.14,20.14,0,1,1,40.28,0V82.82h10.58a27.1,27.1,0,0,1,6.45.78l2.7.66V66a39.87,39.87,0,0,0-79.74,0V84.25l2.7-.66a27.61,27.61,0,0,1,6.45-.77Z"/><path d="M109.51,133.28v14.43a9.52,9.52,0,0,1-19,0V133.28a16.45,16.45,0,1,1,19,0Zm21.21-46.54H69.28a25,25,0,0,0-25,25V146.4a27.51,27.51,0,0,0,27.51,27.51h56.44a27.51,27.51,0,0,0,27.51-27.51V111.75A25,25,0,0,0,130.72,86.74Z"/></g></svg>