<svg xmlns="http://www.w3.org/2000/svg" viewBox="0 0 200 200"><title>icon-tray-bookmarks</title><g id="Layer_2" data-name="Layer 2"><path d="M165.52,186.85H35.79A10.81,10.81,0,0,1,25,176V154.42a10.81,10.81,0,0,1,21.62,0v10.81H154.71V154.42a10.81,10.81,0,0,1,21.62,0V176A10.81,10.81,0,0,1,165.52,186.85ZM165.1,60.17a9.71,9.71,0,0,0-7.82-6.58l-33.11-4.82-14.81-30a10.1,10.1,0,0,0-17.35,0l-14.81,30L44.08,53.59a9.65,9.65,0,0,0-5.37,16.5l24,23.31L57,126.31a9.66,9.66,0,0,0,14.06,10.18L100.66,121l29.62,15.56a9.63,9.63,0,0,0,4.49,1.08,9.68,9.68,0,0,0,9.53-11.31l-5.64-32.94,24-23.28A9.65,9.65,0,0,0,165.1,60.17ZM117.89,86.66,122,110.32,100.66,99.15,79.41,110.32l4.07-23.66L66.27,69.9l23.78-3.45,10.61-21.52,10.62,21.52,23.79,3.45Z"/></g></svg>