<svg xmlns="http://www.w3.org/2000/svg" viewBox="0 0 200 200"><title>icon-immersivemoviemode-videoplayback</title><g id="Layer_2" data-name="Layer 2"><path d="M175.63,53.53H24.37A12.91,12.91,0,0,0,11.49,66.41v67.18a12.9,12.9,0,0,0,12.88,12.87h59a4.27,4.27,0,0,0,3.79-2.21l8.85-18a4.21,4.21,0,0,1,7.57,0L112,144a4.22,4.22,0,0,0,3.92,2.48h59.74a12.9,12.9,0,0,0,12.84-12.87V66.41A12.91,12.91,0,0,0,175.63,53.53ZM60.17,115.11a15.11,15.11,0,1,1,15-15.11A15.1,15.1,0,0,1,60.17,115.11Zm79.66,0a15.11,15.11,0,1,1,15-15.11A15.1,15.1,0,0,1,139.83,115.11Z"/></g></svg>