<svg xmlns="http://www.w3.org/2000/svg" viewBox="0 0 200 200"><title>icon-keyboard-shift-caplock</title><g id="Layer_2" data-name="Layer 2"><path d="M64.74,174.76a6.88,6.88,0,0,0,6.88,6.88h56.76a6.88,6.88,0,0,0,6.88-6.88v-2.24a6.88,6.88,0,0,0-6.88-6.88H71.62a6.88,6.88,0,0,0-6.88,6.88Z"/><path d="M167.65,99.47,105.39,21a6.89,6.89,0,0,0-10.78,0L32.35,99.47a6.88,6.88,0,0,0,0,8.52,7.21,7.21,0,0,0,5.73,2.63H64.49a.25.25,0,0,1,.25.25v31.89a6.88,6.88,0,0,0,6.88,6.88h56.76a6.88,6.88,0,0,0,6.88-6.88V110.87a.25.25,0,0,1,.25-.25H162a7.19,7.19,0,0,0,5.73-2.63A6.88,6.88,0,0,0,167.65,99.47Z"/></g></svg>