<svg xmlns="http://www.w3.org/2000/svg" viewBox="0 0 200 200"><title>icon-ua-desktopmode</title><g id="Layer_2" data-name="Layer 2"><path d="M132.92,176.5a8.61,8.61,0,0,0-2.42-6,8.09,8.09,0,0,0-5.81-2.49H75.31a8.5,8.5,0,0,0,0,17h49.38a8.09,8.09,0,0,0,5.81-2.49A8.64,8.64,0,0,0,132.92,176.5ZM42.39,32a8.37,8.37,0,0,0-8.22,8.5v85a8.63,8.63,0,0,0,2.41,6A8.09,8.09,0,0,0,42.39,134H157.61a8.09,8.09,0,0,0,5.81-2.49,8.63,8.63,0,0,0,2.41-6v-85a8.6,8.6,0,0,0-2.41-6A8.09,8.09,0,0,0,157.61,32ZM157.61,151H42.39c-13.63,0-24.68-11.42-24.68-25.5v-85C17.71,26.42,28.76,15,42.39,15H157.61c13.63,0,24.68,11.42,24.68,25.5v85C182.29,139.58,171.24,151,157.61,151Z"/><path d="M91.06,119.1a8.34,8.34,0,0,1-5.88-2.47L68.9,100.36a8.43,8.43,0,0,1,6-14.32h0a8.38,8.38,0,0,1,5.86,2.37L90,97.62l32.21-46A8.42,8.42,0,0,1,136,61.23L98,115.51a8.4,8.4,0,0,1-6.15,3.58h-.82Z"/></g></svg>