<svg xmlns="http://www.w3.org/2000/svg" viewBox="0 0 200 200"><title>icon-dialog-audio</title><g id="Layer_2" data-name="Layer 2"><path d="M94.14,69.07a3.94,3.94,0,0,0-3.93,0L63.62,84.26H48.94A3.93,3.93,0,0,0,45,88.19v23.59a3.93,3.93,0,0,0,1.15,2.78,4,4,0,0,0,2.78,1.15H63.62l26.61,15.2a3.94,3.94,0,0,0,5.88-3.41v-55A3.92,3.92,0,0,0,94.14,69.07Z"/><path d="M105.44,85.13a3.94,3.94,0,0,0-.6,5.52,15.82,15.82,0,0,1,0,18.66,3.92,3.92,0,0,0,.59,5.54,3.87,3.87,0,0,0,2.89.85,4,4,0,0,0,2.65-1.46,23.49,23.49,0,0,0,0-28.51A3.94,3.94,0,0,0,105.44,85.13Z"/><path d="M121.16,73.33a3.95,3.95,0,0,0-.6,5.53,35.24,35.24,0,0,1,0,42.24,3.93,3.93,0,0,0-.86,2.9,3.93,3.93,0,0,0,7,2,43.5,43.5,0,0,0,0-52.09A4,4,0,0,0,121.16,73.33Z"/><path d="M142.41,62.14a3.93,3.93,0,0,0-6.13,4.93,54.95,54.95,0,0,1,0,65.83,3.93,3.93,0,0,0,3.48,6.38,3.88,3.88,0,0,0,2.65-1.46,63.2,63.2,0,0,0,0-75.68Z"/></g></svg>