<?xml version="1.0" encoding="utf-8"?>
<!-- Generator: Adobe Illustrator 23.0.4, SVG Export Plug-In . SVG Version: 6.00 Build 0)  -->
<svg version="1.1" id="Layer_1" xmlns="http://www.w3.org/2000/svg" xmlns:xlink="http://www.w3.org/1999/xlink" x="0px" y="0px"
	 viewBox="0 0 200 200" style="enable-background:new 0 0 200 200;" xml:space="preserve">
<title>icon-ua-desktop</title>
<g>
	<g id="Layer_2-2">
		<path d="M136.8,186.2c0-2.5-1-4.9-2.7-6.7c-1.7-1.8-4-2.8-6.5-2.8H72.4c-5.2,0-9.5,4.3-9.5,9.5s4.3,9.5,9.5,9.5h55.2
			c2.5,0,4.8-1,6.5-2.8C135.8,191.1,136.8,188.7,136.8,186.2z M35.6,24.8c-5.2,0.1-9.3,4.3-9.2,9.5v95c0,2.5,1,4.9,2.7,6.7
			c1.7,1.8,4,2.8,6.5,2.8h128.7c2.5,0,4.8-1,6.5-2.8c1.7-1.8,2.7-4.2,2.7-6.7v-95c0-2.5-1-4.9-2.7-6.7c-1.7-1.8-4-2.8-6.5-2.8H35.6z
			 M164.4,157.8H35.6c-15.2,0-27.6-12.8-27.6-28.5v-95c0-15.7,12.4-28.5,27.6-28.5h128.7c15.2,0,27.6,12.8,27.6,28.5v95
			C191.9,145,179.6,157.8,164.4,157.8z"/>
	</g>
</g>
</svg>
