<svg xmlns="http://www.w3.org/2000/svg" viewBox="0 0 200 200"><title>icon-moviemode-resize-menu-2x</title><g id="Layer_2" data-name="Layer 2"><path d="M94.48,138.94h-53V127.65l19-19.49Q69,99.4,71.56,96a26.68,26.68,0,0,0,3.73-6.28,15.94,15.94,0,0,0,1.15-6c0-3.08-.84-5.38-2.52-6.88a9.65,9.65,0,0,0-6.71-2.27,19.09,19.09,0,0,0-8.56,2.06A44.15,44.15,0,0,0,50,82.49L41.29,72a57,57,0,0,1,9.27-6.83,34.11,34.11,0,0,1,8-3.08,41.06,41.06,0,0,1,9.75-1.07A28.59,28.59,0,0,1,80.9,63.68,20.16,20.16,0,0,1,89.34,71a19.69,19.69,0,0,1,3,10.83,26.74,26.74,0,0,1-1.84,10,38.76,38.76,0,0,1-5.7,9.53A142.3,142.3,0,0,1,71.2,115.26l-9.75,9.29v.73h33Z"/><path d="M118,109,99.35,80.23h17.94l11.25,18.69,11.35-18.69h17.94L139,109l19.75,30h-18l-12.18-20.11-12.23,20.11H98.37Z"/></g></svg>