<svg xmlns="http://www.w3.org/2000/svg" viewBox="0 0 200 200"><title>icon-settings-help</title><g id="Layer_2" data-name="Layer 2"><path d="M100,15.44A84.56,84.56,0,1,0,184.56,100,84.56,84.56,0,0,0,100,15.44Zm0,152.62A68.06,68.06,0,1,1,168.06,100,68.14,68.14,0,0,1,100,168.06Z"/><path d="M121.62,62.2c-5.35-4.72-12.65-7.11-21.71-7.11-8.61,0-15.66,2.37-20.93,7A23.94,23.94,0,0,0,70.4,79.21h0a7.94,7.94,0,0,0-.05.89A7.05,7.05,0,0,0,84.4,81v0h0c1-4.79,3-8.43,5.75-10.8a15.77,15.77,0,0,1,10.43-3.55c4.3,0,7.76,1.15,10.29,3.4a10.53,10.53,0,0,1,3.86,8.19,10.26,10.26,0,0,1-2.18,6.34c-.94,1.22-3.7,3.68-8.44,7.51s-7.71,7.15-9.23,10.13a25,25,0,0,0-2.31,11.45c0,.45,0,1.66.06,3.81a6.94,6.94,0,0,0,13.87,0c-.08-4.52.3-7.56,1.14-9.32s3-4.07,6.37-6.88c6.45-5.36,10.72-9.66,12.71-12.78a18.11,18.11,0,0,0,2.93-9.82C129.65,72.36,127,67,121.62,62.2Z"/><circle cx="100.51" cy="136.66" r="8.25"/></g></svg>