<svg width="581" height="80" viewBox="0 0 581 80" fill="none" xmlns="http://www.w3.org/2000/svg">
<path d="M560.42 0H20C8.9543 0 0 8.9543 0 20V60C0 71.0457 8.9543 80 20 80H560.42C571.466 80 580.42 71.0457 580.42 60V20C580.42 8.9543 571.466 0 560.42 0Z" fill="#3D3D3D"/>
<path d="M245.42 17.5V62.5" stroke="#5D5D5D" stroke-miterlimit="10" stroke-linecap="round"/>
<path d="M495.43 17.5V62.5" stroke="#5D5D5D" stroke-miterlimit="10" stroke-linecap="round"/>
<path d="M370.43 23C367.068 23 363.781 23.997 360.985 25.865C358.19 27.733 356.011 30.388 354.724 33.4944C353.437 36.6007 353.101 40.0189 353.757 43.3165C354.413 46.6142 356.032 49.6433 358.409 52.0208C360.787 54.3983 363.816 56.0174 367.113 56.6734C370.411 57.3293 373.829 56.9926 376.936 55.706C380.042 54.4193 382.697 52.2403 384.565 49.4447C386.433 46.6491 387.43 43.3623 387.43 40C387.43 35.4913 385.639 31.1673 382.451 27.9792C379.263 24.7911 374.939 23 370.43 23ZM370.43 53.7C367.723 53.7 365.076 52.8973 362.825 51.3935C360.574 49.8897 358.82 47.7522 357.783 45.2512C356.747 42.7503 356.475 39.9982 357.002 37.3429C357.53 34.6876 358.833 32.2482 360.746 30.3332C362.66 28.4183 365.098 27.1136 367.753 26.5843C370.408 26.0549 373.16 26.3246 375.662 27.3592C378.164 28.3939 380.302 30.147 381.808 32.397C383.313 34.647 384.118 37.2928 384.12 40C384.117 43.63 382.674 47.1106 380.107 49.6774C377.541 52.2442 374.06 53.6873 370.43 53.69V53.7Z" fill="#E2E6EB"/>
<path d="M378.38 39H371.72V32.3C371.72 31.8597 371.545 31.4375 371.234 31.1262C370.922 30.8149 370.5 30.64 370.06 30.64C369.62 30.64 369.198 30.8149 368.886 31.1262C368.575 31.4375 368.4 31.8597 368.4 32.3V40.6C368.401 40.7796 368.428 40.9582 368.48 41.13C368.585 41.4695 368.796 41.7664 369.082 41.977C369.368 42.1876 369.715 42.3008 370.07 42.3H378.38C378.608 42.3177 378.838 42.2881 379.054 42.213C379.27 42.1379 379.468 42.0189 379.636 41.8635C379.804 41.708 379.938 41.5196 380.03 41.3099C380.121 41.1002 380.169 40.8738 380.169 40.645C380.169 40.4162 380.121 40.1898 380.03 39.9801C379.938 39.7704 379.804 39.582 379.636 39.4265C379.468 39.2711 379.27 39.1521 379.054 39.077C378.838 39.0019 378.608 38.9723 378.38 38.99V39Z" fill="#E2E6EB"/>
<path d="M449.11 50.42C449.425 50.7287 449.849 50.9011 450.29 50.9H450.46C450.901 50.9011 451.325 50.7287 451.64 50.42L460.78 41.28C461.087 40.966 461.259 40.5443 461.259 40.105C461.259 39.6657 461.087 39.2439 460.78 38.93C460.626 38.7755 460.443 38.6529 460.241 38.5693C460.039 38.4856 459.823 38.4426 459.605 38.4426C459.387 38.4426 459.171 38.4856 458.969 38.5693C458.767 38.6529 458.584 38.7755 458.43 38.93L452.09 45.27V24.34C452.09 23.8997 451.915 23.4775 451.604 23.1662C451.292 22.8549 450.87 22.68 450.43 22.68C449.99 22.68 449.568 22.8549 449.256 23.1662C448.945 23.4775 448.77 23.8997 448.77 24.34V45.34L442.32 38.89C442.163 38.7377 441.978 38.6177 441.774 38.537C441.571 38.4564 441.354 38.4165 441.135 38.4198C440.917 38.423 440.701 38.4693 440.5 38.556C440.299 38.6427 440.117 38.7681 439.965 38.925C439.813 39.0819 439.693 39.2673 439.612 39.4706C439.531 39.6739 439.492 39.8911 439.495 40.1097C439.498 40.3284 439.544 40.5443 439.631 40.7451C439.718 40.9459 439.843 41.1277 440 41.28L449.11 50.42Z" fill="#E2E6EB"/>
<path d="M461.45 54H439.4C439.172 53.9822 438.942 54.0119 438.726 54.087C438.51 54.1621 438.312 54.2811 438.144 54.4365C437.976 54.5919 437.842 54.7804 437.75 54.9901C437.659 55.1998 437.611 55.4262 437.611 55.655C437.611 55.8838 437.659 56.1102 437.75 56.3199C437.842 56.5296 437.976 56.718 438.144 56.8735C438.312 57.0289 438.51 57.1479 438.726 57.223C438.942 57.2981 439.172 57.3277 439.4 57.31H461.45C461.678 57.3277 461.908 57.2981 462.124 57.223C462.34 57.1479 462.538 57.0289 462.706 56.8735C462.874 56.718 463.008 56.5296 463.1 56.3199C463.191 56.1102 463.239 55.8838 463.239 55.655C463.239 55.4262 463.191 55.1998 463.1 54.9901C463.008 54.7804 462.874 54.5919 462.706 54.4365C462.538 54.2811 462.34 54.1621 462.124 54.087C461.908 54.0119 461.678 53.9822 461.45 54Z" fill="#E2E6EB"/>
<path d="M282.9 38.85L281.7 45.85C281.645 46.1548 281.677 46.4691 281.794 46.756C281.911 47.043 282.107 47.2906 282.36 47.47C282.609 47.651 282.904 47.7591 283.212 47.7821C283.519 47.805 283.827 47.742 284.1 47.6L290.43 44.27L296.75 47.6C296.987 47.7262 297.252 47.7914 297.52 47.79C297.762 47.7906 298.001 47.7382 298.221 47.6366C298.441 47.5349 298.635 47.3865 298.792 47.2017C298.948 47.0169 299.062 46.8001 299.125 46.5666C299.189 46.3331 299.201 46.0885 299.16 45.85L297.95 38.85L303.07 33.85C303.291 33.6337 303.448 33.3599 303.522 33.0594C303.596 32.7589 303.584 32.4437 303.489 32.1494C303.393 31.855 303.217 31.5933 302.98 31.3938C302.744 31.1942 302.456 31.0647 302.15 31.02L295.08 30.02L291.91 23.61C291.774 23.3338 291.563 23.1013 291.301 22.9387C291.04 22.7761 290.738 22.69 290.43 22.69C290.121 22.6904 289.818 22.7766 289.555 22.939C289.292 23.1015 289.079 23.3338 288.94 23.61L285.78 30L278.71 31C278.404 31.0447 278.116 31.1742 277.88 31.3738C277.643 31.5733 277.467 31.835 277.371 32.1294C277.276 32.4237 277.264 32.7389 277.338 33.0394C277.412 33.3399 277.569 33.6137 277.79 33.83L282.9 38.85ZM287.12 33.16C287.387 33.1211 287.64 33.018 287.857 32.8594C288.075 32.7009 288.251 32.4917 288.37 32.25L290.43 28.08L292.49 32.25C292.609 32.4917 292.785 32.7009 293.003 32.8594C293.22 33.018 293.473 33.1211 293.74 33.16L298.34 33.83L295 37.08C294.807 37.2682 294.663 37.5001 294.58 37.7561C294.496 38.0121 294.476 38.2844 294.52 38.55L295.31 43.14L291.2 41C290.963 40.8738 290.698 40.8086 290.43 40.81C290.158 40.8086 289.891 40.8738 289.65 41L285.53 43.17L286.32 38.58C286.367 38.3144 286.348 38.0413 286.264 37.7849C286.18 37.5285 286.035 37.2967 285.84 37.11L282.51 33.86L287.12 33.16Z" fill="#E2E6EB"/>
<path d="M301.58 49C301.14 49 300.717 49.1749 300.406 49.4862C300.095 49.7975 299.92 50.2197 299.92 50.66V54H280.92V50.65C280.92 50.2097 280.745 49.7875 280.434 49.4762C280.122 49.1649 279.7 48.99 279.26 48.99C278.82 48.99 278.398 49.1649 278.086 49.4762C277.775 49.7875 277.6 50.2097 277.6 50.65V55.65C277.6 55.868 277.643 56.0839 277.726 56.2853C277.81 56.4867 277.932 56.6697 278.086 56.8238C278.24 56.9779 278.423 57.1002 278.625 57.1836C278.826 57.2671 279.042 57.31 279.26 57.31H301.57C302.01 57.31 302.432 57.1351 302.744 56.8238C303.055 56.5125 303.23 56.0903 303.23 55.65V50.65C303.227 50.2132 303.053 49.795 302.744 49.4862C302.435 49.1773 302.017 49.0026 301.58 49Z" fill="#E2E6EB"/>
<path d="M211.64 30.51C205.33 30.51 203.48 33.1 200.42 33.1C197.36 33.1 195.51 30.52 189.19 30.52C182.87 30.52 181.41 32.08 181.45 36.98C181.51 44.88 185.1 49.49 189.97 49.49C193.68 49.49 196.64 44.74 200.42 44.74C204.2 44.74 206.93 49.49 210.87 49.49C215.73 49.49 219.33 44.88 219.39 36.98C219.42 32.08 218 30.51 211.64 30.51ZM214.22 44.28C213.865 44.8512 213.373 45.3237 212.787 45.6541C212.202 45.9844 211.542 46.1619 210.87 46.17C209.95 46.17 208.74 45.3 207.47 44.38C205.64 43.07 203.36 41.38 200.42 41.38C197.48 41.38 195.11 43.05 193.22 44.38C192.01 45.24 190.76 46.13 189.97 46.13C189.298 46.1219 188.638 45.9444 188.053 45.6141C187.467 45.2837 186.975 44.8112 186.62 44.24C185.315 42.057 184.672 39.5416 184.77 37C184.77 34.85 185.21 34.74 185.39 34.45C185.57 34.16 185.79 33.88 189.19 33.88C191.403 33.8522 193.594 34.3239 195.6 35.26C197.084 36.048 198.739 36.46 200.42 36.46C202.101 36.46 203.756 36.048 205.24 35.26C207.242 34.321 209.429 33.8458 211.64 33.87C215.05 33.87 215.08 34.3 215.36 34.46C215.64 34.62 216.08 34.85 216.07 37C216.171 39.5546 215.529 42.0837 214.22 44.28Z" fill="#E2E6EB"/>
<path d="M192.29 36.55C188.45 36.72 186.87 39.01 186.87 39.55C186.87 40.09 189.41 41.7 191.87 41.7C194.33 41.7 197.29 40.79 197.29 39.98C197.032 38.8891 196.377 37.9335 195.452 37.2994C194.528 36.6652 193.401 36.3981 192.29 36.55Z" fill="#E2E6EB"/>
<path d="M208.55 36.55C207.437 36.4012 206.308 36.6721 205.384 37.3098C204.46 37.9476 203.806 38.9066 203.55 40C203.55 40.81 206.49 41.72 208.97 41.72C211.45 41.72 213.97 40.13 213.97 39.57C213.97 39.01 212.38 36.72 208.55 36.55Z" fill="#E2E6EB"/>
<path d="M54.55 38.32H42.43V26.2C42.43 25.7544 42.253 25.3271 41.9379 25.0121C41.6229 24.697 41.1956 24.52 40.75 24.52C40.3044 24.52 39.8771 24.697 39.5621 25.0121C39.247 25.3271 39.07 25.7544 39.07 26.2V38.32H27C26.5544 38.32 26.1271 38.497 25.8121 38.8121C25.497 39.1271 25.32 39.5544 25.32 40C25.32 40.4456 25.497 40.8729 25.8121 41.1879C26.1271 41.503 26.5544 41.68 27 41.68H39.07V53.8C39.07 54.2456 39.247 54.6729 39.5621 54.9879C39.8771 55.303 40.3044 55.48 40.75 55.48C41.1956 55.48 41.6229 55.303 41.9379 54.9879C42.253 54.6729 42.43 54.2456 42.43 53.8V41.68H54.55C54.9956 41.68 55.4229 41.503 55.7379 41.1879C56.053 40.8729 56.23 40.4456 56.23 40C56.23 39.5544 56.053 39.1271 55.7379 38.8121C55.4229 38.497 54.9956 38.32 54.55 38.32Z" fill="#E2E6EB"/>
<path d="M552.43 40L554.16 37.76C554.513 37.301 554.739 36.7569 554.814 36.1828C554.89 35.6086 554.813 35.0247 554.59 34.49L553.59 32.06C553.37 31.5245 553.011 31.0571 552.55 30.7057C552.09 30.3543 551.545 30.1315 550.97 30.06L548.17 29.7L547.81 26.89C547.737 26.316 547.513 25.7715 547.162 25.3115C546.811 24.8515 546.344 24.4922 545.81 24.27L543.38 23.27C542.977 23.1036 542.546 23.0187 542.11 23.02C541.385 23.0213 540.681 23.2641 540.11 23.71L537.87 25.43L535.64 23.71C535.18 23.3544 534.635 23.1264 534.059 23.0491C533.483 22.9719 532.897 23.0481 532.36 23.27L529.93 24.27C529.396 24.4922 528.929 24.8515 528.578 25.3115C528.227 25.7715 528.003 26.316 527.93 26.89L527.57 29.7L524.77 30.06C524.194 30.1318 523.648 30.3547 523.186 30.7059C522.724 31.0572 522.363 31.5243 522.14 32.06L521.14 34.49C520.919 35.0255 520.843 35.6099 520.92 36.1841C520.998 36.7583 521.225 37.302 521.58 37.76L523.26 40L521.53 42.24C521.175 42.698 520.948 43.2417 520.87 43.8159C520.793 44.3901 520.869 44.9745 521.09 45.51L522.09 47.94C522.313 48.4757 522.674 48.9428 523.136 49.2941C523.598 49.6453 524.144 49.8682 524.72 49.94L527.52 50.3L527.88 53.11C527.954 53.684 528.177 54.2285 528.528 54.6885C528.879 55.1485 529.346 55.5078 529.88 55.73L532.31 56.73C532.847 56.9519 533.433 57.0281 534.009 56.9509C534.585 56.8736 535.13 56.6456 535.59 56.29L537.82 54.57L540.06 56.29C540.631 56.7359 541.335 56.9787 542.06 56.98C542.496 56.9813 542.927 56.8964 543.33 56.73L545.76 55.73C546.294 55.5078 546.761 55.1485 547.112 54.6885C547.463 54.2285 547.687 53.684 547.76 53.11L548.12 50.3L551 50C551.575 49.9285 552.12 49.7057 552.58 49.3543C553.041 49.0029 553.4 48.5355 553.62 48L554.62 45.57C554.842 45.0353 554.92 44.4514 554.844 43.8772C554.769 43.3031 554.543 42.759 554.19 42.3L552.43 40ZM551.55 44.25L550.55 46.68L546.55 47.2L545 48.68L544.49 52.68L542.05 53.68L538.85 51.21H536.8L533.59 53.68L531.16 52.68L530.64 48.68L529.17 47.2L525.17 46.68L524.17 44.25L526.62 41V39L524.14 35.79L525.14 33.36L529.14 32.84L530.61 31.36L531.13 27.36L533.56 26.36L536.77 28.83H538.86L542.06 26.36L544.5 27.36L545.01 31.36L546.49 32.84L550.49 33.36L551.49 35.79L549.07 39V41L551.55 44.25Z" fill="#E2E6EB"/>
<path d="M537.84 32.22C536.301 32.22 534.797 32.6763 533.518 33.5312C532.238 34.386 531.241 35.6011 530.652 37.0227C530.063 38.4443 529.909 40.0086 530.209 41.5178C530.51 43.027 531.251 44.4132 532.339 45.5013C533.427 46.5893 534.813 47.3303 536.322 47.6305C537.831 47.9307 539.396 47.7766 540.817 47.1878C542.239 46.5989 543.454 45.6018 544.309 44.3223C545.164 43.0429 545.62 41.5387 545.62 40C545.617 37.9374 544.797 35.9601 543.338 34.5016C541.88 33.0432 539.903 32.2226 537.84 32.22ZM537.84 44.48C536.954 44.48 536.088 44.2173 535.351 43.725C534.614 43.2327 534.04 42.533 533.701 41.7144C533.362 40.8958 533.273 39.995 533.446 39.126C533.619 38.257 534.046 37.4587 534.672 36.8322C535.299 36.2056 536.097 35.7789 536.966 35.6061C537.835 35.4332 538.736 35.5219 539.554 35.861C540.373 36.2001 541.073 36.7743 541.565 37.511C542.057 38.2478 542.32 39.1139 542.32 40C542.32 41.1882 541.848 42.3277 541.008 43.1678C540.168 44.008 539.028 44.48 537.84 44.48Z" fill="#E2E6EB"/>
<path d="M134 46.08H132V34.23C132.001 33.7117 131.9 33.1983 131.703 32.7192C131.506 32.24 131.216 31.8045 130.85 31.4375C130.484 31.0706 130.049 30.7795 129.57 30.5809C129.091 30.3822 128.578 30.28 128.06 30.28H112.26C111.208 30.2799 110.198 30.6945 109.449 31.4338C108.7 32.1732 108.273 33.1778 108.26 34.23V46.08H106.26C105.73 46.08 105.221 46.2907 104.846 46.6658C104.471 47.0409 104.26 47.5496 104.26 48.08C104.26 48.6104 104.471 49.1191 104.846 49.4942C105.221 49.8693 105.73 50.08 106.26 50.08H134C134.53 50.08 135.039 49.8693 135.414 49.4942C135.789 49.1191 136 48.6104 136 48.08C136 47.5496 135.789 47.0409 135.414 46.6658C135.039 46.2907 134.53 46.08 134 46.08Z" fill="#E2E6EB"/>
</svg>
